<svg width="29" height="36" viewBox="0 0 29 36" fill="none" xmlns="http://www.w3.org/2000/svg">
<g filter="url(#filter0_in_574_228)">
<path d="M19.1172 5.22107C19.2971 5.22488 19.5147 5.31076 19.7949 5.45447C20.0793 5.60031 20.4475 5.81734 20.9326 6.10291C23.5917 7.66812 26.1992 10.6613 27.3877 13.5131C31.6125 23.6521 24.7254 34.7443 13.8379 35.3275C11.671 35.4435 8.87116 34.7556 6.2998 33.3646C3.72771 31.9732 1.37146 29.8714 0.102539 27.1498L0.303711 27.0463C0.776459 27.8827 1.6014 28.8935 2.53125 29.8265C3.46107 30.7596 4.48918 31.6072 5.3623 32.1205C12.5486 36.3453 21.6898 33.658 25.3398 26.2504C26.4255 24.0472 26.75 22.6309 26.75 20.0961C26.75 17.6835 26.434 16.2092 25.498 14.2357C24.1289 11.3494 21.4919 8.71363 18.8184 7.55212C18.6182 7.46525 18.4308 7.38238 18.29 7.3197C18.2197 7.28838 18.1603 7.2623 18.1172 7.24255L18.0293 7.19958C17.9981 7.18039 17.9848 7.15224 17.9795 7.13708C17.9742 7.12166 17.973 7.10781 17.9727 7.09998C17.972 7.08404 17.9739 7.06886 17.9756 7.05896C17.9792 7.03767 17.9862 7.01211 17.9941 6.98572C18.0104 6.93142 18.0363 6.85705 18.0693 6.7699C18.1358 6.59462 18.2335 6.3583 18.3467 6.10291C18.4655 5.83454 18.5614 5.61604 18.668 5.46814C18.7227 5.39224 18.7847 5.32841 18.8604 5.28455C18.9376 5.23983 19.023 5.21908 19.1172 5.22107ZM16.625 0.114624C16.6713 0.111049 16.7239 0.116285 16.7705 0.145874C16.8194 0.177023 16.8466 0.225229 16.8584 0.273804C16.8793 0.360752 16.8562 0.470275 16.8184 0.583374C16.7395 0.819078 16.5594 1.16758 16.2842 1.62341C16.1301 1.87868 15.9896 2.14596 15.8887 2.36951C15.8382 2.48127 15.7978 2.58065 15.7705 2.6615C15.7419 2.74634 15.7324 2.79926 15.7324 2.82263C15.7324 2.93068 15.7006 3.03321 15.6445 3.11169C15.5886 3.18984 15.5011 3.25224 15.3926 3.25232C15.362 3.25232 15.3178 3.26739 15.2734 3.30115C15.2301 3.33426 15.1957 3.37883 15.1787 3.42322C15.1713 3.44263 15.1636 3.48543 15.2607 3.57654C15.3576 3.66731 15.5303 3.77679 15.7969 3.9115L16.5166 4.27576L17.2422 3.99158C17.4577 3.90688 17.6566 3.84249 17.8037 3.80896C17.8757 3.79257 17.9424 3.78181 17.9941 3.78162C18.0183 3.78155 18.0512 3.78371 18.082 3.79626C18.0986 3.80307 18.1205 3.81606 18.1387 3.83826C18.1583 3.8623 18.1689 3.89149 18.1689 3.92126C18.1689 3.95249 18.1584 3.98301 18.1514 4.00134C18.1428 4.0236 18.1306 4.04827 18.1172 4.07458C18.0901 4.12781 18.0524 4.1943 18.0068 4.26794C17.9155 4.41567 17.7896 4.60009 17.6523 4.7865C17.3329 5.22056 17.146 5.69364 17.083 6.22498C17.0558 6.45477 17.0164 6.66608 16.9746 6.82166C16.9539 6.89861 16.9311 6.96635 16.9072 7.01697C16.8955 7.04172 16.8808 7.06836 16.8623 7.09021C16.847 7.10817 16.8089 7.14685 16.749 7.14685C16.6956 7.14674 16.6578 7.11471 16.6426 7.10095C16.6224 7.08267 16.6037 7.05978 16.5869 7.0365C16.5527 6.98903 16.5151 6.92397 16.4766 6.849C16.3991 6.6981 16.3102 6.49307 16.2295 6.26892C16.1039 5.92002 16.0142 5.72763 15.8857 5.58728C15.7581 5.44787 15.5834 5.34954 15.2637 5.2113C15.0492 5.11858 14.8813 5.05564 14.752 5.02087C14.6181 4.98491 14.5445 4.9853 14.5078 4.99744C14.4935 5.00223 14.4858 5.00791 14.4805 5.01501C14.4741 5.02363 14.466 5.04057 14.4609 5.07166C14.4503 5.13745 14.4579 5.24071 14.4883 5.39294L14.5059 5.5033C14.5193 5.61066 14.5186 5.70866 14.501 5.79236C14.4774 5.90379 14.4191 6.00868 14.3057 6.05212C14.3214 6.04609 14.3217 6.03931 14.3076 6.05701C14.2962 6.07149 14.2806 6.09434 14.2627 6.12732C14.2271 6.19292 14.1865 6.28706 14.1426 6.40369C14.0551 6.6362 13.9601 6.94871 13.8809 7.28455C13.8001 7.6267 13.7118 7.93913 13.6338 8.16736C13.595 8.28094 13.5578 8.37684 13.5244 8.44568C13.508 8.4795 13.4905 8.51143 13.4717 8.5365C13.4624 8.54889 13.4497 8.56385 13.4336 8.57654C13.4187 8.58824 13.3892 8.60681 13.3486 8.60681C13.2884 8.60674 13.2422 8.57615 13.2109 8.54236C13.1807 8.5097 13.1572 8.46742 13.1377 8.42224C13.0985 8.33109 13.0631 8.19848 13.0293 8.02576C12.9953 7.85208 12.9619 7.63016 12.9268 7.35486L12.7822 6.05408C12.748 5.77785 12.7116 5.59281 12.6611 5.4574C12.5981 5.28809 12.5134 5.19636 12.3662 5.09998H12.3652C12.2537 5.02691 12.1691 4.94129 12.1123 4.85486C12.0567 4.77015 12.0232 4.67577 12.0303 4.5863C12.0381 4.48968 12.0941 4.40587 12.1943 4.37048C12.2848 4.3386 12.3937 4.3522 12.5078 4.39587H12.5088C12.5341 4.40553 12.5481 4.40617 12.5537 4.40564C12.5555 4.40547 12.5565 4.4057 12.5566 4.40564C12.5581 4.40421 12.5651 4.396 12.5713 4.37439C12.5774 4.35293 12.581 4.32188 12.5811 4.27966C12.5811 4.22655 12.5418 4.13817 12.3926 4.00916C12.2483 3.88443 12.0238 3.74003 11.708 3.57166C10.5782 2.96954 9.21486 1.89492 8.95703 1.68884C8.85512 1.60737 8.92422 1.44174 9.05566 1.46033L9.52344 1.53357C10.1866 1.64628 11.3428 1.87658 12.1582 2.224C12.5902 2.40809 12.8755 2.51318 13.0713 2.55603C13.2673 2.5989 13.344 2.57254 13.3887 2.53552C13.459 2.47705 13.4752 2.44073 13.4775 2.42517C13.4787 2.41714 13.4785 2.39489 13.4336 2.34998C13.3529 2.26932 13.2927 2.18911 13.2607 2.11267C13.2286 2.03553 13.2189 1.94217 13.2773 1.86365C13.3309 1.79183 13.4193 1.76404 13.5029 1.75525C13.5903 1.7461 13.697 1.75542 13.8184 1.77966C13.9755 1.81108 14.1155 1.79863 14.3301 1.69275C14.5526 1.58288 14.8474 1.37567 15.3105 1.01892C15.6228 0.778409 15.9215 0.558733 16.1504 0.397827C16.2645 0.317633 16.3622 0.251321 16.4365 0.204468C16.4735 0.181136 16.5066 0.161014 16.5332 0.146851C16.5463 0.139895 16.5598 0.133477 16.5723 0.128296C16.582 0.124261 16.6021 0.116457 16.625 0.114624Z" fill="#21AECA" stroke="#21AECA" stroke-width="0.226926"/>
<path d="M13.0811 9.82947C13.4195 9.82955 13.7452 9.95705 13.9863 10.1859C14.2276 10.4151 14.3651 10.7273 14.3652 11.0541C14.3652 11.235 14.2811 11.4678 14.1709 11.7006C14.0584 11.9381 13.9092 12.1939 13.7617 12.4281C13.6141 12.6625 13.4669 12.8774 13.3564 13.0336C13.3013 13.1115 13.255 13.175 13.2227 13.2191C13.2065 13.2412 13.1933 13.2592 13.1846 13.2709C13.1804 13.2764 13.177 13.2806 13.1748 13.2836C13.1737 13.2851 13.1725 13.2867 13.1719 13.2875V13.2885L13.0811 13.4086L12.9902 13.2885L12.9893 13.2875C12.9887 13.2867 12.9875 13.2851 12.9863 13.2836C12.9841 13.2806 12.9807 13.2764 12.9766 13.2709C12.9678 13.2592 12.9546 13.2412 12.9385 13.2191C12.9062 13.1751 12.8607 13.1114 12.8057 13.0336C12.6952 12.8774 12.5471 12.6627 12.3994 12.4281C12.2519 12.1939 12.1027 11.9382 11.9902 11.7006C11.88 11.4678 11.7969 11.235 11.7969 11.0541C11.797 10.7273 11.9335 10.4151 12.1748 10.1859C12.416 9.95688 12.7424 9.82947 13.0811 9.82947ZM13.209 10.4545C13.0818 10.4304 12.9496 10.4436 12.8301 10.4906C12.7107 10.5376 12.6098 10.6167 12.5391 10.7172C12.4685 10.8175 12.4307 10.9346 12.4307 11.0541C12.4307 11.2143 12.4978 11.3696 12.6191 11.4847C12.7406 11.6001 12.9069 11.6664 13.0811 11.6664C13.2107 11.6663 13.3374 11.6298 13.4443 11.5619C13.5513 11.494 13.6332 11.3975 13.6816 11.2865C13.7301 11.1755 13.7433 11.0534 13.7188 10.9359C13.6941 10.8185 13.6324 10.7103 13.542 10.6244C13.4515 10.5385 13.336 10.4785 13.209 10.4545Z" fill="#21AECA" stroke="#21AECA" stroke-width="0.226926"/>
<path d="M22.6377 25.8974C22.6416 25.9899 22.6416 26.1048 22.6416 26.205V26.247C22.6416 26.2704 22.6406 26.2924 22.6396 26.3105C22.6386 26.33 22.6377 26.3441 22.6377 26.3554V26.3632L22.6221 26.6152C22.5977 26.8344 22.5705 27.0144 22.5312 27.1523C22.493 27.2866 22.4365 27.4042 22.3359 27.4706C22.2008 27.5607 22.0318 27.5576 21.8994 27.5576H20.29C20.2303 27.5576 20.1053 27.5525 19.9912 27.4482C19.8794 27.3458 19.798 27.1667 19.7725 26.8701V26.8632C19.7722 26.8598 19.7718 26.8549 19.7715 26.8486C19.7707 26.8355 19.7695 26.8157 19.7686 26.79C19.7666 26.7385 19.7647 26.6615 19.7646 26.5576V26.4482L19.874 26.4443C20.6212 26.4144 21.3333 26.3913 21.833 26.414H21.834C22.0296 26.4236 22.1267 26.4213 22.1875 26.4013C22.2312 26.3868 22.2626 26.3611 22.3066 26.2714C22.3555 26.1701 22.3905 26.0332 22.4121 25.8857L22.6377 25.8974ZM6.34961 26.79C6.34865 26.8157 6.34742 26.8355 6.34668 26.8486C6.34632 26.8549 6.34593 26.8598 6.3457 26.8632V26.8701C6.32015 27.1668 6.23788 27.3458 6.12598 27.4482C6.01208 27.5522 5.88783 27.5575 5.82812 27.5576H4.21875C4.08226 27.5576 3.92964 27.5605 3.78613 27.4745V27.4736C3.67909 27.4104 3.62226 27.2887 3.58496 27.1552C3.56561 27.0858 3.54954 27.0052 3.53516 26.915L3.49609 26.6152C3.48801 26.5464 3.48417 26.4595 3.48047 26.3632V26.3554C3.48047 26.3441 3.47952 26.33 3.47852 26.3105C3.47759 26.2924 3.47657 26.2705 3.47656 26.247V26.2011C3.48021 26.1026 3.48047 25.9925 3.48047 25.9023L3.70605 25.8857C3.72764 26.0332 3.76262 26.1701 3.81152 26.2714L3.84277 26.3271C3.87205 26.3727 3.89702 26.3904 3.92969 26.4013C3.99046 26.4215 4.088 26.4236 4.28418 26.414L4.69629 26.4052C5.14255 26.4034 5.68346 26.4218 6.24414 26.4443L6.35352 26.4482V26.5576C6.35351 26.6615 6.35153 26.7385 6.34961 26.79Z" fill="#21AECA" stroke="#21AECA" stroke-width="0.226926"/>
<path d="M13.0635 14.1604C14.0833 14.1604 15.2299 14.1791 16.6689 14.3293C17.7195 14.4358 18.0938 14.4884 18.3076 14.5364L18.4873 14.5842L18.4883 14.5852C18.7295 14.6628 19.2525 14.9536 19.7432 15.8352C19.9665 16.2379 20.148 16.6933 20.2988 17.1067C20.4372 17.4859 20.5477 17.8212 20.6416 18.0647L20.7637 18.0618C20.7638 18.0581 20.7645 18.0539 20.7646 18.05C20.7674 17.9771 20.7729 17.8783 20.7822 17.7766C20.7915 17.6757 20.8054 17.5682 20.8262 17.4788C20.8366 17.4342 20.8493 17.3896 20.8662 17.3518C20.8739 17.3347 20.8843 17.3146 20.8984 17.2952L20.9531 17.2424C20.9911 17.2182 21.0408 17.1826 21.126 17.1663C21.2056 17.1511 21.3118 17.1531 21.4736 17.1741C21.632 17.1946 21.8515 17.2231 22.0479 17.2649C22.1461 17.2858 22.2422 17.3111 22.3232 17.3411C22.3999 17.3695 22.48 17.408 22.5312 17.4651C22.608 17.5509 22.6635 17.6615 22.6992 17.762C22.7346 17.8617 22.7549 17.9643 22.7549 18.0393C22.7548 18.1142 22.7403 18.1761 22.7002 18.2395C22.6653 18.2945 22.6123 18.3489 22.5498 18.4114C22.4955 18.4656 22.4058 18.5016 22.3223 18.5276C22.2327 18.5554 22.1258 18.5785 22.0166 18.5969C21.7981 18.6338 21.5575 18.6536 21.4023 18.6536C21.2328 18.6535 21.1377 18.6136 21.0664 18.5735C20.9972 18.5346 20.9959 18.5308 20.9697 18.5334C20.9582 18.5351 20.9333 18.5439 20.8818 18.5667C20.8671 18.5731 20.8494 18.5786 20.832 18.5862C20.8406 18.6044 20.8463 18.6206 20.8545 18.634C20.8723 18.6632 20.8928 18.6873 20.9316 18.719C20.9734 18.7531 21.0332 18.793 21.1279 18.8557C21.2212 18.9174 21.3453 18.9988 21.5117 19.1125C21.8397 19.3356 22.0777 19.5078 22.2402 19.636C22.3214 19.7 22.3854 19.7549 22.4326 19.8C22.4547 19.8212 22.4762 19.8422 22.4941 19.8635L22.5371 19.927L22.5381 19.928C22.5522 19.9571 22.5627 20.0008 22.5723 20.0442C22.5827 20.0919 22.594 20.1534 22.6055 20.2249C22.6283 20.368 22.6532 20.5583 22.6758 20.7795C22.721 21.2223 22.7588 21.7944 22.7588 22.3733C22.7588 23.5182 22.6761 24.5764 22.6689 24.9241C22.669 25.0756 22.6724 25.3527 22.6338 25.6194C22.6105 25.7785 22.571 25.9409 22.5078 26.0715V26.0725C22.4512 26.1878 22.3834 26.2748 22.2578 26.3167C22.2037 26.3347 22.141 26.3432 22.0684 26.3459L21.8203 26.3411C21.3359 26.3189 20.6231 26.3451 19.8838 26.3713C19.3909 26.39 18.8833 26.4117 18.4326 26.4192C17.8685 26.4304 17.6529 26.3905 17.5146 26.3401C17.4815 26.328 17.4529 26.3154 17.4307 26.3059C17.4078 26.2961 17.3896 26.2886 17.3691 26.2825C17.3297 26.2707 17.2727 26.2612 17.1602 26.2629C16.6909 26.2703 14.7894 26.3489 13.0605 26.3489C11.3316 26.3489 9.4329 26.2703 8.95996 26.2629C8.84747 26.2612 8.79039 26.2707 8.75098 26.2825C8.73052 26.2886 8.71227 26.2961 8.68945 26.3059C8.6672 26.3154 8.63862 26.328 8.60547 26.3401C8.50181 26.3779 8.35469 26.4101 8.0498 26.4192L7.68652 26.4202L6.23633 26.3713C5.68246 26.3488 5.14444 26.3305 4.7041 26.3323L4.2998 26.3411C4.11283 26.3501 3.97047 26.3526 3.8623 26.3167C3.73675 26.2748 3.66892 26.1878 3.6123 26.0725V26.0715C3.54439 25.9387 3.50907 25.7748 3.48633 25.6194V25.6174C3.45161 25.3511 3.45117 25.0751 3.45117 24.9221C3.45117 24.7422 3.43091 24.3969 3.41016 23.9456C3.38955 23.4973 3.36915 22.9501 3.36914 22.3733C3.36914 21.7944 3.40694 21.2223 3.45215 20.7795C3.47474 20.5583 3.49863 20.368 3.52148 20.2249C3.53291 20.1534 3.54423 20.0919 3.55469 20.0442C3.56423 20.0008 3.57572 19.9571 3.58984 19.928C3.61038 19.8847 3.65049 19.841 3.69336 19.8C3.74048 19.7551 3.80464 19.7015 3.88574 19.6379C4.04862 19.5103 4.28815 19.3375 4.61621 19.1125C4.7825 18.9989 4.9062 18.9174 4.99902 18.8557C5.0934 18.793 5.15278 18.7531 5.19434 18.719C5.23271 18.6875 5.25342 18.6634 5.27148 18.634C5.27983 18.6204 5.28522 18.6035 5.29395 18.5852C5.27789 18.5782 5.26183 18.5737 5.24805 18.5676C5.19516 18.5445 5.16886 18.5349 5.15723 18.5334C5.13167 18.5309 5.12957 18.5347 5.06055 18.5735C4.98918 18.6136 4.89424 18.6536 4.72461 18.6536C4.5695 18.6535 4.32954 18.6337 4.11133 18.5969C4.00193 18.5785 3.89435 18.5554 3.80469 18.5276C3.72125 18.5017 3.63237 18.4655 3.57812 18.4114V18.4104C3.51542 18.3495 3.46174 18.2963 3.42676 18.2405C3.38688 18.1767 3.3731 18.1138 3.37305 18.0393C3.37305 17.9643 3.39329 17.8617 3.42871 17.762C3.46442 17.6615 3.51993 17.5509 3.59668 17.4651C3.64809 17.4079 3.72807 17.3692 3.80469 17.3411C3.88573 17.3114 3.98198 17.2865 4.08008 17.2659C4.27606 17.2247 4.49637 17.1962 4.65332 17.1741C4.81539 17.1512 4.92145 17.1493 5.00195 17.1653C5.08659 17.1821 5.13665 17.2192 5.17285 17.2424H5.17383C5.21987 17.2708 5.24598 17.3174 5.26172 17.3518C5.27895 17.3896 5.29227 17.4333 5.30273 17.4778C5.32381 17.5675 5.33762 17.6756 5.34668 17.7766C5.35582 17.8786 5.36078 17.978 5.36328 18.051C5.36341 18.0547 5.36317 18.0583 5.36328 18.0618L5.48438 18.0647C5.57832 17.8211 5.69065 17.4863 5.8291 17.1067C5.97988 16.6933 6.16146 16.2379 6.38477 15.8352C6.87525 14.9539 7.40187 14.6581 7.64062 14.5842C7.85935 14.5166 8.05892 14.475 9.45898 14.3293C10.8975 14.1829 12.0434 14.1604 13.0635 14.1604ZM13.0635 22.1536C12.8075 22.1536 11.8247 22.1609 10.5293 22.3284C10.1523 22.3771 9.88111 22.4117 9.67383 22.4475C9.46648 22.4833 9.33068 22.5189 9.22363 22.5667C9.01043 22.6618 8.89602 22.8086 8.55469 23.1731H8.55371C8.45045 23.2827 8.41618 23.3921 8.4209 23.4944C8.4258 23.6001 8.47305 23.7114 8.55566 23.8176C8.72303 24.0328 9.01111 24.1971 9.25293 24.2288L9.52246 24.2522C9.86108 24.273 10.3902 24.2875 10.9609 24.2981C11.7184 24.3121 12.5401 24.3176 13.0635 24.3176C13.587 24.3176 14.4095 24.3136 15.167 24.3C15.9281 24.2864 16.6145 24.2632 16.874 24.2288C17.1158 24.1973 17.4038 24.0328 17.5713 23.8176C17.6539 23.7114 17.7021 23.6001 17.707 23.4944C17.7106 23.4176 17.6917 23.3369 17.6387 23.2551L17.5732 23.1731C17.232 22.8087 17.1174 22.6618 16.9043 22.5667C16.7972 22.5189 16.6615 22.4833 16.4541 22.4475C16.2467 22.4117 15.9749 22.3772 15.5977 22.3284C14.3017 22.1645 13.3148 22.1536 13.0635 22.1536ZM21.791 20.1184C21.2693 20.1016 20.742 20.1487 19.8877 20.3655L19.4756 20.4758C18.9011 20.635 18.4553 20.8699 18.1543 21.0647C18.0505 21.1319 17.9642 21.1947 17.8955 21.2473C17.9468 21.2569 18.0049 21.2703 18.0693 21.2864C18.2124 21.3222 18.336 21.3806 18.4404 21.4202C18.5484 21.4611 18.6586 21.4924 18.8086 21.4924C18.9677 21.4924 19.2708 21.4549 19.5674 21.4153C19.8546 21.3769 20.1404 21.3354 20.2451 21.3313H20.248L20.3379 21.3372C20.4251 21.35 20.5033 21.3812 20.5664 21.4104C20.6064 21.4289 20.6507 21.4516 20.6787 21.4651C20.7121 21.4812 20.7311 21.489 20.7422 21.4915C20.7627 21.496 20.8125 21.4923 20.9141 21.4661C21.01 21.4413 21.1304 21.4022 21.2822 21.3547C21.3565 21.3315 21.4349 21.312 21.4863 21.2971C21.5436 21.2805 21.5847 21.2657 21.6182 21.2454C21.676 21.2102 21.7327 21.1468 21.7793 20.9602C21.8254 20.7737 21.8258 20.5412 21.8135 20.3499C21.8075 20.2571 21.7986 20.1759 21.791 20.1184ZM4.33691 20.1106V20.1116C4.32926 20.1704 4.3196 20.2531 4.31348 20.3479C4.30416 20.4921 4.30309 20.6586 4.32227 20.8108L4.34863 20.9573V20.9583C4.39347 21.1461 4.45044 21.208 4.50781 21.2424C4.54124 21.2624 4.58215 21.2778 4.63965 21.2942C4.69246 21.3092 4.76917 21.3282 4.84473 21.3518C4.99754 21.3996 5.11757 21.4388 5.21387 21.4641C5.26137 21.4766 5.29914 21.485 5.3291 21.4885C5.36002 21.4922 5.37596 21.49 5.38184 21.4885C5.39434 21.4852 5.41461 21.4769 5.44824 21.4602C5.47821 21.4453 5.51985 21.4228 5.56152 21.4036C5.64634 21.3644 5.75769 21.3227 5.88184 21.3274C5.98623 21.3314 6.27219 21.3729 6.55957 21.4114C6.85598 21.451 7.15911 21.4885 7.31836 21.4885H7.32031C7.46967 21.4901 7.57981 21.4595 7.6875 21.4182C7.79144 21.3784 7.91528 21.3183 8.05859 21.2825C8.12356 21.2662 8.18192 21.2533 8.2334 21.2434C8.16404 21.1905 8.07694 21.1267 7.97168 21.0588C7.67002 20.8644 7.22413 20.63 6.65137 20.469C5.5455 20.1581 4.9375 20.0913 4.33691 20.1106ZM13.0674 14.9827C12.4109 14.9827 10.9948 15.0159 9.71387 15.1018C9.0196 15.1483 8.53538 15.2153 8.21875 15.2747C8.06059 15.3043 7.94442 15.3316 7.86523 15.3538C7.82588 15.3648 7.79633 15.3746 7.77539 15.3821C7.75824 15.3882 7.74945 15.3918 7.74707 15.3928L7.74512 15.3938C7.6983 15.4206 7.62633 15.4876 7.53711 15.593C7.45042 15.6954 7.35523 15.8245 7.26172 15.9631C7.07422 16.2412 6.8986 16.5496 6.8125 16.7502L6.81348 16.7512C6.72615 16.9569 6.6227 17.2622 6.54785 17.5305C6.51043 17.6647 6.48088 17.7877 6.46387 17.8821C6.45534 17.9294 6.44977 17.967 6.44824 17.9944C6.44748 18.0081 6.44779 18.0176 6.44824 18.0227C6.45599 18.0427 6.46072 18.0609 6.46387 18.0735V18.0745C6.48017 18.0776 6.51064 18.083 6.56641 18.0833C6.63931 18.0836 6.74385 18.0788 6.89453 18.0676C7.50602 18.0223 11.2952 17.9739 13.0713 17.9739C14.8511 17.9739 18.6403 18.0223 19.248 18.0676L19.5762 18.0852C19.6312 18.0851 19.6615 18.0796 19.6777 18.0764C19.678 18.0755 19.6785 18.0745 19.6787 18.0735C19.682 18.0601 19.6867 18.0403 19.6953 18.0188C19.6914 18.0285 19.692 18.033 19.6924 18.0256C19.6927 18.0199 19.6925 18.0101 19.6914 17.9963C19.6892 17.9682 19.6839 17.9296 19.6748 17.8821C19.6567 17.7871 19.6267 17.6639 19.5889 17.5295C19.513 17.2603 19.4095 16.9548 19.3223 16.7512C19.2357 16.5492 19.078 16.2603 18.9004 15.9934C18.7653 15.7905 18.6247 15.6096 18.5 15.4885L18.3818 15.3889C18.3869 15.3924 18.3828 15.3898 18.3594 15.3811C18.3391 15.3736 18.3099 15.3639 18.2705 15.3528C18.1914 15.3305 18.0749 15.3032 17.916 15.2737C17.5984 15.2148 17.1136 15.1484 16.4209 15.1018C15.1399 15.0159 13.7238 14.9827 13.0674 14.9827Z" fill="#21AECA" stroke="#21AECA" stroke-width="0.226926"/>
</g>
<defs>
<filter id="filter0_in_574_228" x="0" y="0" width="28.7598" height="35.4539" filterUnits="userSpaceOnUse" color-interpolation-filters="sRGB">
<feFlood flood-opacity="0" result="BackgroundImageFix"/>
<feBlend mode="normal" in="SourceGraphic" in2="BackgroundImageFix" result="shape"/>
<feColorMatrix in="SourceAlpha" type="matrix" values="0 0 0 0 0 0 0 0 0 0 0 0 0 0 0 0 0 0 127 0" result="hardAlpha"/>
<feOffset/>
<feGaussianBlur stdDeviation="0.560641"/>
<feComposite in2="hardAlpha" operator="arithmetic" k2="-1" k3="1"/>
<feColorMatrix type="matrix" values="0 0 0 0 0.0218658 0 0 0 0 0.348582 0 0 0 0 0.413462 0 0 0 0.4 0"/>
<feBlend mode="normal" in2="shape" result="effect1_innerShadow_574_228"/>
<feTurbulence type="fractalNoise" baseFrequency="24.971427917480469 24.971427917480469" stitchTiles="stitch" numOctaves="3" result="noise" seed="3968" />
<feColorMatrix in="noise" type="luminanceToAlpha" result="alphaNoise" />
<feComponentTransfer in="alphaNoise" result="coloredNoise1">
<feFuncA type="discrete" tableValues="1 1 1 1 1 1 1 1 1 1 1 1 1 1 1 1 1 1 1 1 1 1 1 1 1 1 1 1 1 1 1 1 1 1 1 1 1 1 1 1 1 1 1 1 1 1 1 1 1 1 1 0 0 0 0 0 0 0 0 0 0 0 0 0 0 0 0 0 0 0 0 0 0 0 0 0 0 0 0 0 0 0 0 0 0 0 0 0 0 0 0 0 0 0 0 0 0 0 0 0 "/>
</feComponentTransfer>
<feComposite operator="in" in2="effect1_innerShadow_574_228" in="coloredNoise1" result="noise1Clipped" />
<feFlood flood-color="rgba(255, 255, 255, 0.25)" result="color1Flood" />
<feComposite operator="in" in2="noise1Clipped" in="color1Flood" result="color1" />
<feMerge result="effect2_noise_574_228">
<feMergeNode in="effect1_innerShadow_574_228" />
<feMergeNode in="color1" />
</feMerge>
</filter>
</defs>
</svg>
