<svg width="201" height="36" viewBox="0 0 201 36" fill="none" xmlns="http://www.w3.org/2000/svg">
<path d="M19.1172 5.22107C19.2971 5.22488 19.5147 5.31076 19.7949 5.45447C20.0793 5.60031 20.4475 5.81734 20.9326 6.10291C23.5917 7.66812 26.1992 10.6613 27.3877 13.5131C31.6125 23.6521 24.7254 34.7443 13.8379 35.3275C11.671 35.4435 8.87116 34.7556 6.2998 33.3646C3.72771 31.9732 1.37146 29.8714 0.102539 27.1498L0.303711 27.0463C0.776459 27.8827 1.6014 28.8935 2.53125 29.8265C3.46107 30.7596 4.48918 31.6072 5.3623 32.1205C12.5486 36.3453 21.6898 33.658 25.3398 26.2504C26.4255 24.0472 26.75 22.6309 26.75 20.0961C26.75 17.6835 26.434 16.2092 25.498 14.2357C24.1289 11.3494 21.4919 8.71363 18.8184 7.55212C18.6182 7.46525 18.4308 7.38238 18.29 7.3197C18.2197 7.28838 18.1603 7.2623 18.1172 7.24255L18.0293 7.19958C17.9981 7.18039 17.9848 7.15224 17.9795 7.13708C17.9742 7.12166 17.973 7.10781 17.9727 7.09998C17.972 7.08404 17.9739 7.06886 17.9756 7.05896C17.9792 7.03767 17.9862 7.01211 17.9941 6.98572C18.0104 6.93142 18.0363 6.85705 18.0693 6.7699C18.1358 6.59462 18.2335 6.3583 18.3467 6.10291C18.4655 5.83454 18.5614 5.61604 18.668 5.46814C18.7227 5.39224 18.7847 5.32841 18.8604 5.28455C18.9376 5.23983 19.023 5.21908 19.1172 5.22107ZM16.625 0.114624C16.6713 0.111049 16.7239 0.116285 16.7705 0.145874C16.8194 0.177023 16.8466 0.225229 16.8584 0.273804C16.8793 0.360752 16.8562 0.470275 16.8184 0.583374C16.7395 0.819078 16.5594 1.16758 16.2842 1.62341C16.1301 1.87868 15.9896 2.14596 15.8887 2.36951C15.8382 2.48127 15.7978 2.58065 15.7705 2.6615C15.7419 2.74634 15.7324 2.79926 15.7324 2.82263C15.7324 2.93068 15.7006 3.03321 15.6445 3.11169C15.5886 3.18984 15.5011 3.25224 15.3926 3.25232C15.362 3.25232 15.3178 3.26739 15.2734 3.30115C15.2301 3.33426 15.1957 3.37883 15.1787 3.42322C15.1713 3.44263 15.1636 3.48543 15.2607 3.57654C15.3576 3.66731 15.5303 3.77679 15.7969 3.9115L16.5166 4.27576L17.2422 3.99158C17.4577 3.90688 17.6566 3.84249 17.8037 3.80896C17.8757 3.79257 17.9424 3.78181 17.9941 3.78162C18.0183 3.78155 18.0512 3.78371 18.082 3.79626C18.0986 3.80307 18.1205 3.81606 18.1387 3.83826C18.1583 3.8623 18.1689 3.89149 18.1689 3.92126C18.1689 3.95249 18.1584 3.98301 18.1514 4.00134C18.1428 4.0236 18.1306 4.04827 18.1172 4.07458C18.0901 4.12781 18.0524 4.1943 18.0068 4.26794C17.9155 4.41567 17.7896 4.60009 17.6523 4.7865C17.3329 5.22056 17.146 5.69364 17.083 6.22498C17.0558 6.45477 17.0164 6.66608 16.9746 6.82166C16.9539 6.89861 16.9311 6.96635 16.9072 7.01697C16.8955 7.04172 16.8808 7.06836 16.8623 7.09021C16.847 7.10817 16.8089 7.14685 16.749 7.14685C16.6956 7.14674 16.6578 7.11471 16.6426 7.10095C16.6224 7.08267 16.6037 7.05978 16.5869 7.0365C16.5527 6.98903 16.5151 6.92397 16.4766 6.849C16.3991 6.6981 16.3102 6.49307 16.2295 6.26892C16.1039 5.92002 16.0142 5.72763 15.8857 5.58728C15.7581 5.44787 15.5834 5.34954 15.2637 5.2113C15.0492 5.11858 14.8813 5.05564 14.752 5.02087C14.6181 4.98491 14.5445 4.9853 14.5078 4.99744C14.4935 5.00223 14.4858 5.00791 14.4805 5.01501C14.4741 5.02363 14.466 5.04057 14.4609 5.07166C14.4503 5.13745 14.4579 5.24071 14.4883 5.39294L14.5059 5.5033C14.5193 5.61066 14.5186 5.70866 14.501 5.79236C14.4774 5.90379 14.4191 6.00868 14.3057 6.05212C14.3214 6.04609 14.3217 6.03931 14.3076 6.05701C14.2962 6.07149 14.2806 6.09434 14.2627 6.12732C14.2271 6.19292 14.1865 6.28706 14.1426 6.40369C14.0551 6.6362 13.9601 6.94871 13.8809 7.28455C13.8001 7.6267 13.7118 7.93913 13.6338 8.16736C13.595 8.28094 13.5578 8.37684 13.5244 8.44568C13.508 8.4795 13.4905 8.51143 13.4717 8.5365C13.4624 8.54889 13.4497 8.56385 13.4336 8.57654C13.4187 8.58824 13.3892 8.60681 13.3486 8.60681C13.2884 8.60674 13.2422 8.57615 13.2109 8.54236C13.1807 8.5097 13.1572 8.46742 13.1377 8.42224C13.0985 8.33109 13.0631 8.19848 13.0293 8.02576C12.9953 7.85208 12.9619 7.63016 12.9268 7.35486L12.7822 6.05408C12.748 5.77785 12.7116 5.59281 12.6611 5.4574C12.5981 5.28809 12.5134 5.19636 12.3662 5.09998H12.3652C12.2537 5.02691 12.1691 4.94129 12.1123 4.85486C12.0567 4.77015 12.0232 4.67577 12.0303 4.5863C12.0381 4.48968 12.0941 4.40587 12.1943 4.37048C12.2848 4.3386 12.3937 4.3522 12.5078 4.39587H12.5088C12.5341 4.40553 12.5481 4.40617 12.5537 4.40564C12.5555 4.40547 12.5565 4.4057 12.5566 4.40564C12.5581 4.40421 12.5651 4.396 12.5713 4.37439C12.5774 4.35293 12.581 4.32188 12.5811 4.27966C12.5811 4.22655 12.5418 4.13817 12.3926 4.00916C12.2483 3.88443 12.0238 3.74003 11.708 3.57166C10.5782 2.96954 9.21486 1.89492 8.95703 1.68884C8.85512 1.60737 8.92422 1.44174 9.05566 1.46033L9.52344 1.53357C10.1866 1.64628 11.3428 1.87658 12.1582 2.224C12.5902 2.40809 12.8755 2.51318 13.0713 2.55603C13.2673 2.5989 13.344 2.57254 13.3887 2.53552C13.459 2.47705 13.4752 2.44073 13.4775 2.42517C13.4787 2.41714 13.4785 2.39489 13.4336 2.34998C13.3529 2.26932 13.2927 2.18911 13.2607 2.11267C13.2286 2.03553 13.2189 1.94217 13.2773 1.86365C13.3309 1.79183 13.4193 1.76404 13.5029 1.75525C13.5903 1.7461 13.697 1.75542 13.8184 1.77966C13.9755 1.81108 14.1155 1.79863 14.3301 1.69275C14.5526 1.58288 14.8474 1.37567 15.3105 1.01892C15.6228 0.778409 15.9215 0.558733 16.1504 0.397827C16.2645 0.317633 16.3622 0.251321 16.4365 0.204468C16.4735 0.181136 16.5066 0.161014 16.5332 0.146851C16.5463 0.139895 16.5598 0.133477 16.5723 0.128296C16.582 0.124261 16.6021 0.116457 16.625 0.114624Z" fill="white" stroke="white" stroke-width="0.226926"/>
<path d="M13.0811 9.82947C13.4195 9.82955 13.7452 9.95705 13.9863 10.1859C14.2276 10.4151 14.3651 10.7273 14.3652 11.0541C14.3652 11.235 14.2811 11.4678 14.1709 11.7006C14.0584 11.9381 13.9092 12.1939 13.7617 12.4281C13.6141 12.6625 13.4669 12.8774 13.3564 13.0336C13.3013 13.1115 13.255 13.175 13.2227 13.2191C13.2065 13.2412 13.1933 13.2592 13.1846 13.2709C13.1804 13.2764 13.177 13.2806 13.1748 13.2836C13.1737 13.2851 13.1725 13.2867 13.1719 13.2875V13.2885L13.0811 13.4086L12.9902 13.2885L12.9893 13.2875C12.9887 13.2867 12.9875 13.2851 12.9863 13.2836C12.9841 13.2806 12.9807 13.2764 12.9766 13.2709C12.9678 13.2592 12.9546 13.2412 12.9385 13.2191C12.9062 13.1751 12.8607 13.1114 12.8057 13.0336C12.6952 12.8774 12.5471 12.6627 12.3994 12.4281C12.2519 12.1939 12.1027 11.9382 11.9902 11.7006C11.88 11.4678 11.7969 11.235 11.7969 11.0541C11.797 10.7273 11.9335 10.4151 12.1748 10.1859C12.416 9.95688 12.7424 9.82947 13.0811 9.82947ZM13.209 10.4545C13.0818 10.4304 12.9496 10.4436 12.8301 10.4906C12.7107 10.5376 12.6098 10.6167 12.5391 10.7172C12.4685 10.8175 12.4307 10.9346 12.4307 11.0541C12.4307 11.2143 12.4978 11.3696 12.6191 11.4847C12.7406 11.6001 12.9069 11.6664 13.0811 11.6664C13.2107 11.6663 13.3374 11.6298 13.4443 11.5619C13.5513 11.494 13.6332 11.3975 13.6816 11.2865C13.7301 11.1755 13.7433 11.0534 13.7188 10.9359C13.6941 10.8185 13.6324 10.7103 13.542 10.6244C13.4515 10.5385 13.336 10.4785 13.209 10.4545Z" fill="white" stroke="white" stroke-width="0.226926"/>
<path d="M22.6377 25.8974C22.6416 25.9899 22.6416 26.1048 22.6416 26.205V26.247C22.6416 26.2704 22.6406 26.2924 22.6396 26.3105C22.6386 26.33 22.6377 26.3441 22.6377 26.3554V26.3632L22.6221 26.6152C22.5977 26.8344 22.5705 27.0144 22.5312 27.1523C22.493 27.2866 22.4365 27.4042 22.3359 27.4706C22.2008 27.5607 22.0318 27.5576 21.8994 27.5576H20.29C20.2303 27.5576 20.1053 27.5525 19.9912 27.4482C19.8794 27.3458 19.798 27.1667 19.7725 26.8701V26.8632C19.7722 26.8598 19.7718 26.8549 19.7715 26.8486C19.7707 26.8355 19.7695 26.8157 19.7686 26.79C19.7666 26.7385 19.7647 26.6615 19.7646 26.5576V26.4482L19.874 26.4443C20.6212 26.4144 21.3333 26.3913 21.833 26.414H21.834C22.0296 26.4236 22.1267 26.4213 22.1875 26.4013C22.2312 26.3868 22.2626 26.3611 22.3066 26.2714C22.3555 26.1701 22.3905 26.0332 22.4121 25.8857L22.6377 25.8974ZM6.34961 26.79C6.34865 26.8157 6.34742 26.8355 6.34668 26.8486C6.34632 26.8549 6.34593 26.8598 6.3457 26.8632V26.8701C6.32015 27.1668 6.23788 27.3458 6.12598 27.4482C6.01208 27.5522 5.88783 27.5575 5.82812 27.5576H4.21875C4.08226 27.5576 3.92964 27.5605 3.78613 27.4745V27.4736C3.67909 27.4104 3.62226 27.2887 3.58496 27.1552C3.56561 27.0858 3.54954 27.0052 3.53516 26.915L3.49609 26.6152C3.48801 26.5464 3.48417 26.4595 3.48047 26.3632V26.3554C3.48047 26.3441 3.47952 26.33 3.47852 26.3105C3.47759 26.2924 3.47657 26.2705 3.47656 26.247V26.2011C3.48021 26.1026 3.48047 25.9925 3.48047 25.9023L3.70605 25.8857C3.72764 26.0332 3.76262 26.1701 3.81152 26.2714L3.84277 26.3271C3.87205 26.3727 3.89702 26.3904 3.92969 26.4013C3.99046 26.4215 4.088 26.4236 4.28418 26.414L4.69629 26.4052C5.14255 26.4034 5.68346 26.4218 6.24414 26.4443L6.35352 26.4482V26.5576C6.35351 26.6615 6.35153 26.7385 6.34961 26.79Z" fill="white" stroke="white" stroke-width="0.226926"/>
<path d="M13.0635 14.1604C14.0833 14.1604 15.2299 14.1791 16.6689 14.3293C17.7195 14.4358 18.0938 14.4884 18.3076 14.5364L18.4873 14.5842L18.4883 14.5852C18.7295 14.6628 19.2525 14.9536 19.7432 15.8352C19.9665 16.2379 20.148 16.6933 20.2988 17.1067C20.4372 17.4859 20.5477 17.8212 20.6416 18.0647L20.7637 18.0618C20.7638 18.0581 20.7645 18.0539 20.7646 18.05C20.7674 17.9771 20.7729 17.8783 20.7822 17.7766C20.7915 17.6757 20.8054 17.5682 20.8262 17.4788C20.8366 17.4342 20.8493 17.3896 20.8662 17.3518C20.8739 17.3347 20.8843 17.3146 20.8984 17.2952L20.9531 17.2424C20.9911 17.2182 21.0408 17.1826 21.126 17.1663C21.2056 17.1511 21.3118 17.1531 21.4736 17.1741C21.632 17.1946 21.8515 17.2231 22.0479 17.2649C22.1461 17.2858 22.2422 17.3111 22.3232 17.3411C22.3999 17.3695 22.48 17.408 22.5312 17.4651C22.608 17.5509 22.6635 17.6615 22.6992 17.762C22.7346 17.8617 22.7549 17.9643 22.7549 18.0393C22.7548 18.1142 22.7403 18.1761 22.7002 18.2395C22.6653 18.2945 22.6123 18.3489 22.5498 18.4114C22.4955 18.4656 22.4058 18.5016 22.3223 18.5276C22.2327 18.5554 22.1258 18.5785 22.0166 18.5969C21.7981 18.6338 21.5575 18.6536 21.4023 18.6536C21.2328 18.6535 21.1377 18.6136 21.0664 18.5735C20.9972 18.5346 20.9959 18.5308 20.9697 18.5334C20.9582 18.5351 20.9333 18.5439 20.8818 18.5667C20.8671 18.5731 20.8494 18.5786 20.832 18.5862C20.8406 18.6044 20.8463 18.6206 20.8545 18.634C20.8723 18.6632 20.8928 18.6873 20.9316 18.719C20.9734 18.7531 21.0332 18.793 21.1279 18.8557C21.2212 18.9174 21.3453 18.9988 21.5117 19.1125C21.8397 19.3356 22.0777 19.5078 22.2402 19.636C22.3214 19.7 22.3854 19.7549 22.4326 19.8C22.4547 19.8212 22.4762 19.8422 22.4941 19.8635L22.5371 19.927L22.5381 19.928C22.5522 19.9571 22.5627 20.0008 22.5723 20.0442C22.5827 20.0919 22.594 20.1534 22.6055 20.2249C22.6283 20.368 22.6532 20.5583 22.6758 20.7795C22.721 21.2223 22.7588 21.7944 22.7588 22.3733C22.7588 23.5182 22.6761 24.5764 22.6689 24.9241C22.669 25.0756 22.6724 25.3527 22.6338 25.6194C22.6105 25.7785 22.571 25.9409 22.5078 26.0715V26.0725C22.4512 26.1878 22.3834 26.2748 22.2578 26.3167C22.2037 26.3347 22.141 26.3432 22.0684 26.3459L21.8203 26.3411C21.3359 26.3189 20.6231 26.3451 19.8838 26.3713C19.3909 26.39 18.8833 26.4117 18.4326 26.4192C17.8685 26.4304 17.6529 26.3905 17.5146 26.3401C17.4815 26.328 17.4529 26.3154 17.4307 26.3059C17.4078 26.2961 17.3896 26.2886 17.3691 26.2825C17.3297 26.2707 17.2727 26.2612 17.1602 26.2629C16.6909 26.2703 14.7894 26.3489 13.0605 26.3489C11.3316 26.3489 9.4329 26.2703 8.95996 26.2629C8.84747 26.2612 8.79039 26.2707 8.75098 26.2825C8.73052 26.2886 8.71227 26.2961 8.68945 26.3059C8.6672 26.3154 8.63862 26.328 8.60547 26.3401C8.50181 26.3779 8.35469 26.4101 8.0498 26.4192L7.68652 26.4202L6.23633 26.3713C5.68246 26.3488 5.14444 26.3305 4.7041 26.3323L4.2998 26.3411C4.11283 26.3501 3.97047 26.3526 3.8623 26.3167C3.73675 26.2748 3.66892 26.1878 3.6123 26.0725V26.0715C3.54439 25.9387 3.50907 25.7748 3.48633 25.6194V25.6174C3.45161 25.3511 3.45117 25.0751 3.45117 24.9221C3.45117 24.7422 3.43091 24.3969 3.41016 23.9456C3.38955 23.4973 3.36915 22.9501 3.36914 22.3733C3.36914 21.7944 3.40694 21.2223 3.45215 20.7795C3.47474 20.5583 3.49863 20.368 3.52148 20.2249C3.53291 20.1534 3.54423 20.0919 3.55469 20.0442C3.56423 20.0008 3.57572 19.9571 3.58984 19.928C3.61038 19.8847 3.65049 19.841 3.69336 19.8C3.74048 19.7551 3.80464 19.7015 3.88574 19.6379C4.04862 19.5103 4.28815 19.3375 4.61621 19.1125C4.7825 18.9989 4.9062 18.9174 4.99902 18.8557C5.0934 18.793 5.15278 18.7531 5.19434 18.719C5.23271 18.6875 5.25342 18.6634 5.27148 18.634C5.27983 18.6204 5.28522 18.6035 5.29395 18.5852C5.27789 18.5782 5.26183 18.5737 5.24805 18.5676C5.19516 18.5445 5.16886 18.5349 5.15723 18.5334C5.13167 18.5309 5.12957 18.5347 5.06055 18.5735C4.98918 18.6136 4.89424 18.6536 4.72461 18.6536C4.5695 18.6535 4.32954 18.6337 4.11133 18.5969C4.00193 18.5785 3.89435 18.5554 3.80469 18.5276C3.72125 18.5017 3.63237 18.4655 3.57812 18.4114V18.4104C3.51542 18.3495 3.46174 18.2963 3.42676 18.2405C3.38688 18.1767 3.3731 18.1138 3.37305 18.0393C3.37305 17.9643 3.39329 17.8617 3.42871 17.762C3.46442 17.6615 3.51993 17.5509 3.59668 17.4651C3.64809 17.4079 3.72807 17.3692 3.80469 17.3411C3.88573 17.3114 3.98198 17.2865 4.08008 17.2659C4.27606 17.2247 4.49637 17.1962 4.65332 17.1741C4.81539 17.1512 4.92145 17.1493 5.00195 17.1653C5.08659 17.1821 5.13665 17.2192 5.17285 17.2424H5.17383C5.21987 17.2708 5.24598 17.3174 5.26172 17.3518C5.27895 17.3896 5.29227 17.4333 5.30273 17.4778C5.32381 17.5675 5.33762 17.6756 5.34668 17.7766C5.35582 17.8786 5.36078 17.978 5.36328 18.051C5.36341 18.0547 5.36317 18.0583 5.36328 18.0618L5.48438 18.0647C5.57832 17.8211 5.69065 17.4863 5.8291 17.1067C5.97988 16.6933 6.16146 16.2379 6.38477 15.8352C6.87525 14.9539 7.40187 14.6581 7.64062 14.5842C7.85935 14.5166 8.05892 14.475 9.45898 14.3293C10.8975 14.1829 12.0434 14.1604 13.0635 14.1604ZM13.0635 22.1536C12.8075 22.1536 11.8247 22.1609 10.5293 22.3284C10.1523 22.3771 9.88111 22.4117 9.67383 22.4475C9.46648 22.4833 9.33068 22.5189 9.22363 22.5667C9.01043 22.6618 8.89602 22.8086 8.55469 23.1731H8.55371C8.45045 23.2827 8.41618 23.3921 8.4209 23.4944C8.4258 23.6001 8.47305 23.7114 8.55566 23.8176C8.72303 24.0328 9.01111 24.1971 9.25293 24.2288L9.52246 24.2522C9.86108 24.273 10.3902 24.2875 10.9609 24.2981C11.7184 24.3121 12.5401 24.3176 13.0635 24.3176C13.587 24.3176 14.4095 24.3136 15.167 24.3C15.9281 24.2864 16.6145 24.2632 16.874 24.2288C17.1158 24.1973 17.4038 24.0328 17.5713 23.8176C17.6539 23.7114 17.7021 23.6001 17.707 23.4944C17.7106 23.4176 17.6917 23.3369 17.6387 23.2551L17.5732 23.1731C17.232 22.8087 17.1174 22.6618 16.9043 22.5667C16.7972 22.5189 16.6615 22.4833 16.4541 22.4475C16.2467 22.4117 15.9749 22.3772 15.5977 22.3284C14.3017 22.1645 13.3148 22.1536 13.0635 22.1536ZM21.791 20.1184C21.2693 20.1016 20.742 20.1487 19.8877 20.3655L19.4756 20.4758C18.9011 20.635 18.4553 20.8699 18.1543 21.0647C18.0505 21.1319 17.9642 21.1947 17.8955 21.2473C17.9468 21.2569 18.0049 21.2703 18.0693 21.2864C18.2124 21.3222 18.336 21.3806 18.4404 21.4202C18.5484 21.4611 18.6586 21.4924 18.8086 21.4924C18.9677 21.4924 19.2708 21.4549 19.5674 21.4153C19.8546 21.3769 20.1404 21.3354 20.2451 21.3313H20.248L20.3379 21.3372C20.4251 21.35 20.5033 21.3812 20.5664 21.4104C20.6064 21.4289 20.6507 21.4516 20.6787 21.4651C20.7121 21.4812 20.7311 21.489 20.7422 21.4915C20.7627 21.496 20.8125 21.4923 20.9141 21.4661C21.01 21.4413 21.1304 21.4022 21.2822 21.3547C21.3565 21.3315 21.4349 21.312 21.4863 21.2971C21.5436 21.2805 21.5847 21.2657 21.6182 21.2454C21.676 21.2102 21.7327 21.1468 21.7793 20.9602C21.8254 20.7737 21.8258 20.5412 21.8135 20.3499C21.8075 20.2571 21.7986 20.1759 21.791 20.1184ZM4.33691 20.1106V20.1116C4.32926 20.1704 4.3196 20.2531 4.31348 20.3479C4.30416 20.4921 4.30309 20.6586 4.32227 20.8108L4.34863 20.9573V20.9583C4.39347 21.1461 4.45044 21.208 4.50781 21.2424C4.54124 21.2624 4.58215 21.2778 4.63965 21.2942C4.69246 21.3092 4.76917 21.3282 4.84473 21.3518C4.99754 21.3996 5.11757 21.4388 5.21387 21.4641C5.26137 21.4766 5.29914 21.485 5.3291 21.4885C5.36002 21.4922 5.37596 21.49 5.38184 21.4885C5.39434 21.4852 5.41461 21.4769 5.44824 21.4602C5.47821 21.4453 5.51985 21.4228 5.56152 21.4036C5.64634 21.3644 5.75769 21.3227 5.88184 21.3274C5.98623 21.3314 6.27219 21.3729 6.55957 21.4114C6.85598 21.451 7.15911 21.4885 7.31836 21.4885H7.32031C7.46967 21.4901 7.57981 21.4595 7.6875 21.4182C7.79144 21.3784 7.91528 21.3183 8.05859 21.2825C8.12356 21.2662 8.18192 21.2533 8.2334 21.2434C8.16404 21.1905 8.07694 21.1267 7.97168 21.0588C7.67002 20.8644 7.22413 20.63 6.65137 20.469C5.5455 20.1581 4.9375 20.0913 4.33691 20.1106ZM13.0674 14.9827C12.4109 14.9827 10.9948 15.0159 9.71387 15.1018C9.0196 15.1483 8.53538 15.2153 8.21875 15.2747C8.06059 15.3043 7.94442 15.3316 7.86523 15.3538C7.82588 15.3648 7.79633 15.3746 7.77539 15.3821C7.75824 15.3882 7.74945 15.3918 7.74707 15.3928L7.74512 15.3938C7.6983 15.4206 7.62633 15.4876 7.53711 15.593C7.45042 15.6954 7.35523 15.8245 7.26172 15.9631C7.07422 16.2412 6.8986 16.5496 6.8125 16.7502L6.81348 16.7512C6.72615 16.9569 6.6227 17.2622 6.54785 17.5305C6.51043 17.6647 6.48088 17.7877 6.46387 17.8821C6.45534 17.9294 6.44977 17.967 6.44824 17.9944C6.44748 18.0081 6.44779 18.0176 6.44824 18.0227C6.45599 18.0427 6.46072 18.0609 6.46387 18.0735V18.0745C6.48017 18.0776 6.51064 18.083 6.56641 18.0833C6.63931 18.0836 6.74385 18.0788 6.89453 18.0676C7.50602 18.0223 11.2952 17.9739 13.0713 17.9739C14.8511 17.9739 18.6403 18.0223 19.248 18.0676L19.5762 18.0852C19.6312 18.0851 19.6615 18.0796 19.6777 18.0764C19.678 18.0755 19.6785 18.0745 19.6787 18.0735C19.682 18.0601 19.6867 18.0403 19.6953 18.0188C19.6914 18.0285 19.692 18.033 19.6924 18.0256C19.6927 18.0199 19.6925 18.0101 19.6914 17.9963C19.6892 17.9682 19.6839 17.9296 19.6748 17.8821C19.6567 17.7871 19.6267 17.6639 19.5889 17.5295C19.513 17.2603 19.4095 16.9548 19.3223 16.7512C19.2357 16.5492 19.078 16.2603 18.9004 15.9934C18.7653 15.7905 18.6247 15.6096 18.5 15.4885L18.3818 15.3889C18.3869 15.3924 18.3828 15.3898 18.3594 15.3811C18.3391 15.3736 18.3099 15.3639 18.2705 15.3528C18.1914 15.3305 18.0749 15.3032 17.916 15.2737C17.5984 15.2148 17.1136 15.1484 16.4209 15.1018C15.1399 15.0159 13.7238 14.9827 13.0674 14.9827Z" fill="white" stroke="white" stroke-width="0.226926"/>
<mask id="path-5-outside-1_580_831" maskUnits="userSpaceOnUse" x="41.5332" y="4.93811" width="158" height="20" fill="black">
<rect fill="white" x="41.5332" y="4.93811" width="158" height="20"/>
<path d="M42.0762 6.23662H45.1707V13.4483H54.2181V6.23662H57.3388V23.9381H54.2181V16.5428H45.1707V23.9381H42.0762V6.23662ZM66.8876 6.23662H75.7514V9.3311H66.8876C65.0256 9.3311 64.2127 10.1965 64.2127 11.5602C64.2127 13.0025 65.1305 13.6581 66.9138 13.6581H75.6203V16.4641H66.8351C65.0518 16.4641 64.134 17.1722 64.134 18.6146C64.134 20.0044 64.9994 20.8436 66.8089 20.8436H75.7776V23.9381H66.8089C62.613 23.9381 60.9084 21.8664 60.9084 19.1128C60.9084 17.0935 61.8262 15.7299 63.4522 15.048C61.8 14.3662 60.9608 13.0025 60.9608 11.0619C60.9608 8.22968 62.7179 6.23662 66.8876 6.23662ZM87.1685 9.69824L81.5564 23.9381H78.1473L84.3625 8.20345C85.0181 6.55131 86.2244 5.92193 88.0863 5.92193C89.922 5.92193 91.1284 6.55131 91.7577 8.20345L97.7369 23.9381H94.3015L88.9255 9.69824C88.7682 9.27865 88.4797 9.09508 88.0601 9.09508C87.6405 9.09508 87.352 9.27865 87.1685 9.69824ZM97.1559 6.23662H110.609V9.3311H105.443V23.9381H102.322V9.3311H97.1559V6.23662ZM113.528 6.23662H116.622V13.4483H125.669V6.23662H128.79V23.9381H125.669V16.5428H116.622V23.9381H113.528V6.23662ZM133.015 6.23662H142.613C146.6 6.23662 148.304 8.70172 148.304 11.534C148.304 13.7368 147.255 16.097 144.554 16.8575L148.671 23.9381H145.236L141.197 17.0935H136.582C136.293 17.0935 136.136 17.2247 136.136 17.5393V23.9381H133.042V16.9362C133.042 14.9431 133.881 14.1302 135.821 14.1302H142.718C144.475 14.1302 145.183 12.9239 145.183 11.6651C145.183 10.4063 144.423 9.3311 142.718 9.3311H133.015V6.23662ZM158.747 6.23662H161.16C166.3 6.23662 169.158 9.17376 169.158 15.1267C169.158 21.0534 166.326 23.9381 161.16 23.9381H158.747C153.581 23.9381 150.749 21.0534 150.749 15.1267C150.749 9.17376 153.607 6.23662 158.747 6.23662ZM161.16 9.3311H158.747C155.338 9.3311 153.843 11.0619 153.843 15.1267C153.843 19.1653 155.312 20.8436 158.747 20.8436H161.16C164.569 20.8436 166.038 19.1653 166.038 15.1005C166.038 11.0619 164.569 9.3311 161.16 9.3311ZM170.138 6.23662H173.442L178.739 20.5027C178.923 20.9485 179.238 21.237 179.71 21.237C180.234 21.237 180.627 20.8436 180.627 20.2405V9.77692C180.627 7.46917 181.939 5.92193 184.535 5.92193C186.895 5.92193 188.049 7.1807 188.731 9.19998L193.032 20.5027C193.189 20.9485 193.556 21.237 194.002 21.237C194.526 21.237 194.893 20.8436 194.893 20.2405V6.23662H198.014V20.3716C198.014 22.7056 196.703 24.2528 194.081 24.2528C191.72 24.2528 190.593 22.994 189.911 20.9747L185.61 9.67202C185.453 9.2262 185.086 8.91151 184.614 8.91151C184.089 8.91151 183.722 9.30488 183.722 9.93426V20.3716C183.722 22.7056 182.411 24.2528 179.788 24.2528C177.428 24.2528 176.3 22.994 175.619 20.9747L170.138 6.23662Z"/>
</mask>
<path d="M42.0762 6.23662H45.1707V13.4483H54.2181V6.23662H57.3388V23.9381H54.2181V16.5428H45.1707V23.9381H42.0762V6.23662ZM66.8876 6.23662H75.7514V9.3311H66.8876C65.0256 9.3311 64.2127 10.1965 64.2127 11.5602C64.2127 13.0025 65.1305 13.6581 66.9138 13.6581H75.6203V16.4641H66.8351C65.0518 16.4641 64.134 17.1722 64.134 18.6146C64.134 20.0044 64.9994 20.8436 66.8089 20.8436H75.7776V23.9381H66.8089C62.613 23.9381 60.9084 21.8664 60.9084 19.1128C60.9084 17.0935 61.8262 15.7299 63.4522 15.048C61.8 14.3662 60.9608 13.0025 60.9608 11.0619C60.9608 8.22968 62.7179 6.23662 66.8876 6.23662ZM87.1685 9.69824L81.5564 23.9381H78.1473L84.3625 8.20345C85.0181 6.55131 86.2244 5.92193 88.0863 5.92193C89.922 5.92193 91.1284 6.55131 91.7577 8.20345L97.7369 23.9381H94.3015L88.9255 9.69824C88.7682 9.27865 88.4797 9.09508 88.0601 9.09508C87.6405 9.09508 87.352 9.27865 87.1685 9.69824ZM97.1559 6.23662H110.609V9.3311H105.443V23.9381H102.322V9.3311H97.1559V6.23662ZM113.528 6.23662H116.622V13.4483H125.669V6.23662H128.79V23.9381H125.669V16.5428H116.622V23.9381H113.528V6.23662ZM133.015 6.23662H142.613C146.6 6.23662 148.304 8.70172 148.304 11.534C148.304 13.7368 147.255 16.097 144.554 16.8575L148.671 23.9381H145.236L141.197 17.0935H136.582C136.293 17.0935 136.136 17.2247 136.136 17.5393V23.9381H133.042V16.9362C133.042 14.9431 133.881 14.1302 135.821 14.1302H142.718C144.475 14.1302 145.183 12.9239 145.183 11.6651C145.183 10.4063 144.423 9.3311 142.718 9.3311H133.015V6.23662ZM158.747 6.23662H161.16C166.3 6.23662 169.158 9.17376 169.158 15.1267C169.158 21.0534 166.326 23.9381 161.16 23.9381H158.747C153.581 23.9381 150.749 21.0534 150.749 15.1267C150.749 9.17376 153.607 6.23662 158.747 6.23662ZM161.16 9.3311H158.747C155.338 9.3311 153.843 11.0619 153.843 15.1267C153.843 19.1653 155.312 20.8436 158.747 20.8436H161.16C164.569 20.8436 166.038 19.1653 166.038 15.1005C166.038 11.0619 164.569 9.3311 161.16 9.3311ZM170.138 6.23662H173.442L178.739 20.5027C178.923 20.9485 179.238 21.237 179.71 21.237C180.234 21.237 180.627 20.8436 180.627 20.2405V9.77692C180.627 7.46917 181.939 5.92193 184.535 5.92193C186.895 5.92193 188.049 7.1807 188.731 9.19998L193.032 20.5027C193.189 20.9485 193.556 21.237 194.002 21.237C194.526 21.237 194.893 20.8436 194.893 20.2405V6.23662H198.014V20.3716C198.014 22.7056 196.703 24.2528 194.081 24.2528C191.72 24.2528 190.593 22.994 189.911 20.9747L185.61 9.67202C185.453 9.2262 185.086 8.91151 184.614 8.91151C184.089 8.91151 183.722 9.30488 183.722 9.93426V20.3716C183.722 22.7056 182.411 24.2528 179.788 24.2528C177.428 24.2528 176.3 22.994 175.619 20.9747L170.138 6.23662Z" fill="white"/>
<path d="M42.0762 6.23662V5.71213H41.5517V6.23662H42.0762ZM45.1707 6.23662H45.6951V5.71213H45.1707V6.23662ZM45.1707 13.4483H44.6462V13.9728H45.1707V13.4483ZM54.2181 13.4483V13.9728H54.7426V13.4483H54.2181ZM54.2181 6.23662V5.71213H53.6936V6.23662H54.2181ZM57.3388 6.23662H57.8633V5.71213H57.3388V6.23662ZM57.3388 23.9381V24.4626H57.8633V23.9381H57.3388ZM54.2181 23.9381H53.6936V24.4626H54.2181V23.9381ZM54.2181 16.5428H54.7426V16.0183H54.2181V16.5428ZM45.1707 16.5428V16.0183H44.6462V16.5428H45.1707ZM45.1707 23.9381V24.4626H45.6951V23.9381H45.1707ZM42.0762 23.9381H41.5517V24.4626H42.0762V23.9381ZM42.0762 6.23662V6.76111H45.1707V6.23662V5.71213H42.0762V6.23662ZM45.1707 6.23662H44.6462V13.4483H45.1707H45.6951V6.23662H45.1707ZM45.1707 13.4483V13.9728H54.2181V13.4483V12.9239H45.1707V13.4483ZM54.2181 13.4483H54.7426V6.23662H54.2181H53.6936V13.4483H54.2181ZM54.2181 6.23662V6.76111H57.3388V6.23662V5.71213H54.2181V6.23662ZM57.3388 6.23662H56.8143V23.9381H57.3388H57.8633V6.23662H57.3388ZM57.3388 23.9381V23.4136H54.2181V23.9381V24.4626H57.3388V23.9381ZM54.2181 23.9381H54.7426V16.5428H54.2181H53.6936V23.9381H54.2181ZM54.2181 16.5428V16.0183H45.1707V16.5428V17.0673H54.2181V16.5428ZM45.1707 16.5428H44.6462V23.9381H45.1707H45.6951V16.5428H45.1707ZM45.1707 23.9381V23.4136H42.0762V23.9381V24.4626H45.1707V23.9381ZM42.0762 23.9381H42.6007V6.23662H42.0762H41.5517V23.9381H42.0762ZM75.7514 6.23662H76.2759V5.71213H75.7514V6.23662ZM75.7514 9.3311V9.85559H76.2759V9.3311H75.7514ZM75.6203 13.6581H76.1448V13.1336H75.6203V13.6581ZM75.6203 16.4641V16.9886H76.1448V16.4641H75.6203ZM75.7776 20.8436H76.3021V20.3191H75.7776V20.8436ZM75.7776 23.9381V24.4626H76.3021V23.9381H75.7776ZM63.4522 15.048L63.655 15.5317L64.8176 15.0442L63.6522 14.5632L63.4522 15.048ZM66.8876 6.23662V6.76111H75.7514V6.23662V5.71213H66.8876V6.23662ZM75.7514 6.23662H75.2269V9.3311H75.7514H76.2759V6.23662H75.7514ZM75.7514 9.3311V8.80661H66.8876V9.3311V9.85559H75.7514V9.3311ZM66.8876 9.3311V8.80661C65.8842 8.80661 65.0706 9.03902 64.5038 9.54193C63.9264 10.0542 63.6882 10.7725 63.6882 11.5602H64.2127H64.7372C64.7372 10.9842 64.9054 10.5879 65.2 10.3266C65.5051 10.0559 66.029 9.85559 66.8876 9.85559V9.3311ZM64.2127 11.5602H63.6882C63.6882 12.4014 63.9629 13.1003 64.5769 13.5674C65.1623 14.0128 65.9741 14.1826 66.9138 14.1826V13.6581V13.1336C66.0702 13.1336 65.5314 12.9756 65.2121 12.7326C64.9214 12.5114 64.7372 12.1613 64.7372 11.5602H64.2127ZM66.9138 13.6581V14.1826H75.6203V13.6581V13.1336H66.9138V13.6581ZM75.6203 13.6581H75.0958V16.4641H75.6203H76.1448V13.6581H75.6203ZM75.6203 16.4641V15.9397H66.8351V16.4641V16.9886H75.6203V16.4641ZM66.8351 16.4641V15.9397C65.888 15.9397 65.075 16.1254 64.4907 16.5869C63.8831 17.0669 63.6095 17.7745 63.6095 18.6146H64.134H64.6585C64.6585 18.0123 64.8438 17.6447 65.1409 17.4101C65.4614 17.157 65.999 16.9886 66.8351 16.9886V16.4641ZM64.134 18.6146H63.6095C63.6095 19.4223 63.8652 20.1403 64.4494 20.6467C65.0214 21.1424 65.8319 21.3681 66.8089 21.3681V20.8436V20.3191C65.9764 20.3191 65.4495 20.1253 65.1364 19.8539C64.8355 19.5932 64.6585 19.1967 64.6585 18.6146H64.134ZM66.8089 20.8436V21.3681H75.7776V20.8436V20.3191H66.8089V20.8436ZM75.7776 20.8436H75.2532V23.9381H75.7776H76.3021V20.8436H75.7776ZM75.7776 23.9381V23.4136H66.8089V23.9381V24.4626H75.7776V23.9381ZM66.8089 23.9381V23.4136C64.7911 23.4136 63.4601 22.9155 62.6375 22.1695C61.8219 21.4298 61.4329 20.3797 61.4329 19.1128H60.9084H60.3839C60.3839 20.5995 60.8472 21.962 61.9328 22.9466C63.0115 23.9248 64.6307 24.4626 66.8089 24.4626V23.9381ZM60.9084 19.1128H61.4329C61.4329 18.1834 61.6435 17.44 62.0128 16.8609C62.381 16.2835 62.9276 15.8368 63.655 15.5317L63.4522 15.048L63.2493 14.5643C62.3508 14.9411 61.6255 15.5172 61.1283 16.2969C60.6322 17.0749 60.3839 18.023 60.3839 19.1128H60.9084ZM63.4522 15.048L63.6522 14.5632C62.9152 14.259 62.3838 13.8146 62.0322 13.2498C61.6785 12.6817 61.4853 11.9569 61.4853 11.0619H60.9608H60.4363C60.4363 12.1075 60.6628 13.0349 61.1417 13.8042C61.6227 14.5768 62.337 15.1552 63.2521 15.5329L63.4522 15.048ZM60.9608 11.0619H61.4853C61.4853 9.75687 61.8865 8.70905 62.7087 7.97948C63.5402 7.24159 64.8788 6.76111 66.8876 6.76111V6.23662V5.71213C64.7266 5.71213 63.1018 6.22818 62.0124 7.19488C60.9137 8.1699 60.4363 9.53472 60.4363 11.0619H60.9608ZM87.1685 9.69825L86.688 9.48802L86.6841 9.49691L86.6805 9.50594L87.1685 9.69825ZM81.5564 23.9381V24.4626H81.9135L82.0444 24.1304L81.5564 23.9381ZM78.1473 23.9381L77.6595 23.7454L77.3762 24.4626H78.1473V23.9381ZM84.3625 8.20345L83.8749 8.01L83.8746 8.01077L84.3625 8.20345ZM91.7577 8.20345L92.248 8.01715L92.2479 8.01674L91.7577 8.20345ZM97.7369 23.9381V24.4626H98.4973L98.2272 23.7518L97.7369 23.9381ZM94.3015 23.9381L93.8108 24.1234L93.9389 24.4626H94.3015V23.9381ZM88.9255 9.69825L88.4344 9.88241L88.4348 9.88349L88.9255 9.69825ZM87.1685 9.69825L86.6805 9.50594L81.0685 23.7458L81.5564 23.9381L82.0444 24.1304L87.6564 9.89055L87.1685 9.69825ZM81.5564 23.9381V23.4136H78.1473V23.9381V24.4626H81.5564V23.9381ZM78.1473 23.9381L78.6351 24.1308L84.8503 8.39614L84.3625 8.20345L83.8746 8.01077L77.6595 23.7454L78.1473 23.9381ZM84.3625 8.20345L84.85 8.39691C85.1434 7.65741 85.541 7.18865 86.0387 6.89478C86.5459 6.59532 87.2097 6.44641 88.0863 6.44641V5.92193V5.39744C87.101 5.39744 86.2307 5.56323 85.5054 5.9915C84.7705 6.42536 84.2371 7.09735 83.8749 8.01L84.3625 8.20345ZM88.0863 5.92193V6.44641C88.9491 6.44641 89.6055 6.59505 90.1056 6.89352C90.5961 7.1862 90.9868 7.65313 91.2676 8.39017L91.7577 8.20345L92.2479 8.01674C91.8993 7.10164 91.3722 6.42781 90.6432 5.99275C89.9239 5.56349 89.0593 5.39744 88.0863 5.39744V5.92193ZM91.7577 8.20345L91.2675 8.38976L97.2466 24.1244L97.7369 23.9381L98.2272 23.7518L92.248 8.01715L91.7577 8.20345ZM97.7369 23.9381V23.4136H94.3015V23.9381V24.4626H97.7369V23.9381ZM94.3015 23.9381L94.7922 23.7529L89.4162 9.513L88.9255 9.69825L88.4348 9.88349L93.8108 24.1234L94.3015 23.9381ZM88.9255 9.69825L89.4166 9.51408C89.3092 9.22782 89.1398 8.9786 88.8866 8.80597C88.6343 8.63396 88.3467 8.57059 88.0601 8.57059V9.09508V9.61957C88.1931 9.61957 88.2595 9.64799 88.2957 9.67266C88.331 9.69672 88.3844 9.74908 88.4344 9.8824L88.9255 9.69825ZM88.0601 9.09508V8.57059C87.772 8.57059 87.4874 8.63456 87.2348 8.80292C86.9836 8.97041 86.809 9.21133 86.688 9.48802L87.1685 9.69825L87.649 9.90847C87.7115 9.76557 87.7729 9.70491 87.8167 9.67572C87.8592 9.6474 87.9286 9.61957 88.0601 9.61957V9.09508ZM97.1559 6.23662V5.71213H96.6314V6.23662H97.1559ZM110.609 6.23662H111.133V5.71213H110.609V6.23662ZM110.609 9.3311V9.85559H111.133V9.3311H110.609ZM105.443 9.3311V8.80661H104.918V9.3311H105.443ZM105.443 23.9381V24.4626H105.967V23.9381H105.443ZM102.322 23.9381H101.798V24.4626H102.322V23.9381ZM102.322 9.3311H102.847V8.80661H102.322V9.3311ZM97.1559 9.3311H96.6314V9.85559H97.1559V9.3311ZM97.1559 6.23662V6.76111H110.609V6.23662V5.71213H97.1559V6.23662ZM110.609 6.23662H110.085V9.3311H110.609H111.133V6.23662H110.609ZM110.609 9.3311V8.80661H105.443V9.3311V9.85559H110.609V9.3311ZM105.443 9.3311H104.918V23.9381H105.443H105.967V9.3311H105.443ZM105.443 23.9381V23.4136H102.322V23.9381V24.4626H105.443V23.9381ZM102.322 23.9381H102.847V9.3311H102.322H101.798V23.9381H102.322ZM102.322 9.3311V8.80661H97.1559V9.3311V9.85559H102.322V9.3311ZM97.1559 9.3311H97.6804V6.23662H97.1559H96.6314V9.3311H97.1559ZM113.528 6.23662V5.71213H113.003V6.23662H113.528ZM116.622 6.23662H117.146V5.71213H116.622V6.23662ZM116.622 13.4483H116.097V13.9728H116.622V13.4483ZM125.669 13.4483V13.9728H126.194V13.4483H125.669ZM125.669 6.23662V5.71213H125.145V6.23662H125.669ZM128.79 6.23662H129.315V5.71213H128.79V6.23662ZM128.79 23.9381V24.4626H129.315V23.9381H128.79ZM125.669 23.9381H125.145V24.4626H125.669V23.9381ZM125.669 16.5428H126.194V16.0183H125.669V16.5428ZM116.622 16.5428V16.0183H116.097V16.5428H116.622ZM116.622 23.9381V24.4626H117.146V23.9381H116.622ZM113.528 23.9381H113.003V24.4626H113.528V23.9381ZM113.528 6.23662V6.76111H116.622V6.23662V5.71213H113.528V6.23662ZM116.622 6.23662H116.097V13.4483H116.622H117.146V6.23662H116.622ZM116.622 13.4483V13.9728H125.669V13.4483V12.9239H116.622V13.4483ZM125.669 13.4483H126.194V6.23662H125.669H125.145V13.4483H125.669ZM125.669 6.23662V6.76111H128.79V6.23662V5.71213H125.669V6.23662ZM128.79 6.23662H128.266V23.9381H128.79H129.315V6.23662H128.79ZM128.79 23.9381V23.4136H125.669V23.9381V24.4626H128.79V23.9381ZM125.669 23.9381H126.194V16.5428H125.669H125.145V23.9381H125.669ZM125.669 16.5428V16.0183H116.622V16.5428V17.0673H125.669V16.5428ZM116.622 16.5428H116.097V23.9381H116.622H117.146V16.5428H116.622ZM116.622 23.9381V23.4136H113.528V23.9381V24.4626H116.622V23.9381ZM113.528 23.9381H114.052V6.23662H113.528H113.003V23.9381H113.528ZM133.015 6.23662V5.71213H132.491V6.23662H133.015ZM144.554 16.8575L144.412 16.3527L143.76 16.5361L144.101 17.1212L144.554 16.8575ZM148.671 23.9381V24.4626H149.583L149.125 23.6745L148.671 23.9381ZM145.236 23.9381L144.784 24.2046L144.936 24.4626H145.236V23.9381ZM141.197 17.0935L141.649 16.827L141.497 16.569H141.197V17.0935ZM136.136 23.9381V24.4626H136.661V23.9381H136.136ZM133.042 23.9381H132.517V24.4626H133.042V23.9381ZM133.015 9.3311H132.491V9.85559H133.015V9.3311ZM133.015 6.23662V6.76111H142.613V6.23662V5.71213H133.015V6.23662ZM142.613 6.23662V6.76111C144.495 6.76111 145.768 7.33943 146.574 8.18498C147.385 9.03637 147.78 10.2198 147.78 11.534H148.304H148.829C148.829 10.0159 148.371 8.55064 147.333 7.46142C146.29 6.36636 144.718 5.71213 142.613 5.71213V6.23662ZM148.304 11.534H147.78C147.78 13.5853 146.816 15.6759 144.412 16.3527L144.554 16.8575L144.696 17.3624C147.695 16.5181 148.829 13.8883 148.829 11.534H148.304ZM144.554 16.8575L144.101 17.1212L148.218 24.2018L148.671 23.9381L149.125 23.6745L145.007 16.5939L144.554 16.8575ZM148.671 23.9381V23.4136H145.236V23.9381V24.4626H148.671V23.9381ZM145.236 23.9381L145.688 23.6716L141.649 16.827L141.197 17.0935L140.746 17.3601L144.784 24.2046L145.236 23.9381ZM141.197 17.0935V16.569H136.582V17.0935V17.618H141.197V17.0935ZM136.582 17.0935V16.569C136.369 16.569 136.1 16.6165 135.888 16.8194C135.672 17.0266 135.612 17.3013 135.612 17.5393H136.136H136.661C136.661 17.5026 136.665 17.4951 136.662 17.506C136.657 17.5201 136.643 17.549 136.613 17.5774C136.584 17.6054 136.557 17.6165 136.546 17.6198C136.539 17.6222 136.548 17.618 136.582 17.618V17.0935ZM136.136 17.5393H135.612V23.9381H136.136H136.661V17.5393H136.136ZM136.136 23.9381V23.4136H133.042V23.9381V24.4626H136.136V23.9381ZM133.042 23.9381H133.566V16.9362H133.042H132.517V23.9381H133.042ZM133.042 16.9362H133.566C133.566 15.9978 133.766 15.4653 134.075 15.1567C134.383 14.8481 134.909 14.6547 135.821 14.6547V14.1302V13.6057C134.793 13.6057 133.929 13.8187 133.333 14.4149C132.737 15.011 132.517 15.8815 132.517 16.9362H133.042ZM135.821 14.1302V14.6547H142.718V14.1302V13.6057H135.821V14.1302ZM142.718 14.1302V14.6547C143.727 14.6547 144.496 14.3028 145.007 13.7126C145.506 13.1353 145.708 12.386 145.708 11.6651H145.183H144.659C144.659 12.2029 144.507 12.6862 144.213 13.0267C143.93 13.3543 143.467 13.6057 142.718 13.6057V14.1302ZM145.183 11.6651H145.708C145.708 10.9332 145.486 10.2099 144.971 9.66558C144.45 9.11517 143.685 8.80661 142.718 8.80661V9.3311V9.85559C143.456 9.85559 143.924 10.0846 144.209 10.3865C144.501 10.6945 144.659 11.1382 144.659 11.6651H145.183ZM142.718 9.3311V8.80661H133.015V9.3311V9.85559H142.718V9.3311ZM133.015 9.3311H133.54V6.23662H133.015H132.491V9.3311H133.015ZM158.747 6.23662V6.76111H161.16V6.23662V5.71213H158.747V6.23662ZM161.16 6.23662V6.76111C163.63 6.76111 165.47 7.46432 166.7 8.80399C167.937 10.1514 168.634 12.2262 168.634 15.1267H169.158H169.683C169.683 12.0743 168.95 9.70404 167.473 8.09463C165.989 6.47749 163.829 5.71213 161.16 5.71213V6.23662ZM169.158 15.1267H168.634C168.634 18.0148 167.943 20.0684 166.712 21.3986C165.486 22.7216 163.647 23.4136 161.16 23.4136V23.9381V24.4626C163.839 24.4626 165.999 23.7123 167.481 22.1113C168.957 20.5174 169.683 18.1654 169.683 15.1267H169.158ZM161.16 23.9381V23.4136H158.747V23.9381V24.4626H161.16V23.9381ZM158.747 23.9381V23.4136C156.26 23.4136 154.421 22.7216 153.196 21.3986C151.964 20.0684 151.273 18.0148 151.273 15.1267H150.749H150.224C150.224 18.1654 150.95 20.5174 152.426 22.1113C153.908 23.7123 156.068 24.4626 158.747 24.4626V23.9381ZM150.749 15.1267H151.273C151.273 12.2262 151.97 10.1514 153.207 8.80399C154.437 7.46432 156.277 6.76111 158.747 6.76111V6.23662V5.71213C156.078 5.71213 153.919 6.47749 152.434 8.09463C150.957 9.70404 150.224 12.0743 150.224 15.1267H150.749ZM161.16 9.3311V8.80661H158.747V9.3311V9.85559H161.16V9.3311ZM158.747 9.3311V8.80661C156.959 8.80661 155.555 9.26227 154.617 10.3649C153.697 11.4472 153.319 13.0493 153.319 15.1267H153.843H154.368C154.368 13.1393 154.737 11.8436 155.416 11.0443C156.079 10.2653 157.126 9.85559 158.747 9.85559V9.3311ZM153.843 15.1267H153.319C153.319 17.1893 153.69 18.7745 154.61 19.842C155.546 20.9286 156.951 21.3681 158.747 21.3681V20.8436V20.3191C157.108 20.3191 156.061 19.9195 155.404 19.1572C154.731 18.3759 154.368 17.1026 154.368 15.1267H153.843ZM158.747 20.8436V21.3681H161.16V20.8436V20.3191H158.747V20.8436ZM161.16 20.8436V21.3681C162.944 21.3681 164.343 20.9279 165.276 19.8372C166.191 18.7666 166.562 17.1757 166.562 15.1005H166.038H165.513C165.513 17.0901 165.15 18.3707 164.479 19.1555C163.825 19.9201 162.785 20.3191 161.16 20.3191V20.8436ZM166.038 15.1005H166.562C166.562 13.0373 166.191 11.4418 165.278 10.3625C164.347 9.26229 162.948 8.80661 161.16 8.80661V9.3311V9.85559C162.781 9.85559 163.821 10.2653 164.477 11.0401C165.15 11.8359 165.513 13.1251 165.513 15.1005H166.038ZM170.138 6.23662V5.71213H169.383L169.646 6.41944L170.138 6.23662ZM173.442 6.23662L173.934 6.05405L173.807 5.71213H173.442V6.23662ZM178.739 20.5027L178.248 20.6853L178.251 20.6939L178.254 20.7024L178.739 20.5027ZM188.731 9.19998L188.234 9.36777L188.237 9.3772L188.241 9.38651L188.731 9.19998ZM193.032 20.5027L193.526 20.3281L193.522 20.3162L193.032 20.5027ZM194.893 6.23662V5.71213H194.369V6.23662H194.893ZM198.014 6.23662H198.539V5.71213H198.014V6.23662ZM189.911 20.9747L190.408 20.807L190.405 20.7975L190.401 20.7882L189.911 20.9747ZM185.61 9.67202L185.115 9.84663L185.12 9.85855L185.61 9.67202ZM175.619 20.9747L176.115 20.807L176.113 20.7994L176.11 20.7919L175.619 20.9747ZM170.138 6.23662V6.76111H173.442V6.23662V5.71213H170.138V6.23662ZM173.442 6.23662L172.95 6.4192L178.248 20.6853L178.739 20.5027L179.231 20.3201L173.934 6.05405L173.442 6.23662ZM178.739 20.5027L178.254 20.7024C178.491 21.277 178.96 21.7615 179.71 21.7615V21.237V20.7125C179.515 20.7125 179.355 20.6201 179.224 20.303L178.739 20.5027ZM179.71 21.237V21.7615C180.108 21.7615 180.478 21.6096 180.747 21.3248C181.014 21.0413 181.152 20.6577 181.152 20.2405H180.627H180.103C180.103 20.4264 180.044 20.541 179.984 20.605C179.924 20.6677 179.836 20.7125 179.71 20.7125V21.237ZM180.627 20.2405H181.152V9.77692H180.627H180.103V20.2405H180.627ZM180.627 9.77692H181.152C181.152 8.71981 181.451 7.90094 181.985 7.34842C182.515 6.7992 183.342 6.44641 184.535 6.44641V5.92193V5.39744C183.131 5.39744 182.004 5.81827 181.23 6.61961C180.459 7.41765 180.103 8.52628 180.103 9.77692H180.627ZM184.535 5.92193V6.44641C185.615 6.44641 186.366 6.73143 186.923 7.20374C187.491 7.68536 187.909 8.40559 188.234 9.36777L188.731 9.19998L189.228 9.03219C188.871 7.97509 188.371 7.05629 187.601 6.40371C186.821 5.74181 185.815 5.39744 184.535 5.39744V5.92193ZM188.731 9.19998L188.241 9.38651L192.541 20.6892L193.032 20.5027L193.522 20.3162L189.221 9.01345L188.731 9.19998ZM193.032 20.5027L192.537 20.6773C192.757 21.302 193.303 21.7615 194.002 21.7615V21.237V20.7125C193.809 20.7125 193.62 20.595 193.526 20.3281L193.032 20.5027ZM194.002 21.237V21.7615C194.402 21.7615 194.77 21.6078 195.033 21.317C195.293 21.0302 195.418 20.6479 195.418 20.2405H194.893H194.369C194.369 20.4362 194.311 20.5522 194.256 20.6128C194.204 20.6695 194.126 20.7125 194.002 20.7125V21.237ZM194.893 20.2405H195.418V6.23662H194.893H194.369V20.2405H194.893ZM194.893 6.23662V6.76111H198.014V6.23662V5.71213H194.893V6.23662ZM198.014 6.23662H197.49V20.3716H198.014H198.539V6.23662H198.014ZM198.014 20.3716H197.49C197.49 21.4432 197.19 22.268 196.654 22.823C196.121 23.3747 195.288 23.7283 194.081 23.7283V24.2528V24.7773C195.496 24.7773 196.63 24.3573 197.408 23.5519C198.183 22.7498 198.539 21.6339 198.539 20.3716H198.014ZM194.081 24.2528V23.7283C193.001 23.7283 192.257 23.4435 191.707 22.9726C191.146 22.4917 190.734 21.7717 190.408 20.807L189.911 20.9747L189.414 21.1425C189.77 22.1971 190.262 23.1161 191.025 23.7694C191.8 24.4327 192.8 24.7773 194.081 24.7773V24.2528ZM189.911 20.9747L190.401 20.7882L186.1 9.48549L185.61 9.67202L185.12 9.85855L189.421 21.1613L189.911 20.9747ZM185.61 9.67202L186.105 9.49746C185.889 8.8854 185.351 8.38702 184.614 8.38702V8.91151V9.436C184.82 9.436 185.017 9.56701 185.115 9.84658L185.61 9.67202ZM184.614 8.91151V8.38702C184.213 8.38702 183.843 8.54129 183.579 8.83842C183.319 9.13046 183.197 9.51907 183.197 9.93427H183.722H184.246C184.246 9.72007 184.308 9.59731 184.363 9.53532C184.414 9.47842 184.49 9.436 184.614 9.436V8.91151ZM183.722 9.93427H183.197V20.3716H183.722H184.246V9.93427H183.722ZM183.722 20.3716H183.197C183.197 21.4432 182.898 22.268 182.361 22.823C181.828 23.3747 180.995 23.7283 179.788 23.7283V24.2528V24.7773C181.203 24.7773 182.337 24.3573 183.116 23.5519C183.891 22.7498 184.246 21.6339 184.246 20.3716H183.722ZM179.788 24.2528V23.7283C178.708 23.7283 177.965 23.4435 177.415 22.9726C176.854 22.4917 176.441 21.7717 176.115 20.807L175.619 20.9747L175.122 21.1425C175.478 22.1971 175.97 23.1161 176.733 23.7694C177.507 24.4327 178.508 24.7773 179.788 24.7773V24.2528ZM175.619 20.9747L176.11 20.7919L170.629 6.0538L170.138 6.23662L169.646 6.41944L175.127 21.1576L175.619 20.9747Z" fill="white" mask="url(#path-5-outside-1_580_831)"/>
<mask id="path-7-outside-2_580_831" maskUnits="userSpaceOnUse" x="40.8281" y="27.2269" width="158" height="9" fill="black">
<rect fill="white" x="40.8281" y="27.2269" width="158" height="9"/>
<path d="M41.9433 34.9232V33.7084C42.6688 33.9784 43.4888 34.1134 44.4033 34.1134C45.5135 34.1134 46.0686 33.7422 46.0686 32.9998C46.0686 32.4599 45.7278 32.1899 45.0462 32.1899H43.9123C42.4309 32.1899 41.6903 31.515 41.6903 30.1652C41.6903 28.6805 42.7448 27.9381 44.8538 27.9381C45.6637 27.9381 46.4314 28.0562 47.1569 28.2924V29.5072C46.4314 29.2372 45.6637 29.1023 44.8538 29.1023C43.639 29.1023 43.0316 29.4566 43.0316 30.1652C43.0316 30.7051 43.3252 30.9751 43.9123 30.9751H45.0462C46.622 30.9751 47.41 31.65 47.41 32.9998C47.41 34.5183 46.4078 35.2775 44.4033 35.2775C43.4888 35.2775 42.6688 35.1594 41.9433 34.9232ZM56.7567 35.2269H55.3799L58.4524 27.9887H59.895L63.0332 35.2269H61.5906L60.7656 33.2529H58.3613L58.8219 32.0887H60.2796L59.1408 29.3705L56.7567 35.2269ZM76.1357 27.9887V29.1428H72.714V30.965H75.9636V32.1646H72.6988V35.2269H71.3828V27.9887H76.1357ZM89.6938 27.9887V29.1428H86.0696V30.965H89.5217V32.1646H86.0544V34.0627H89.7647V35.2269H84.7384V27.9887H89.6938ZM108.21 35.2269V27.9887H111.45C112.928 27.9887 113.667 28.6687 113.667 30.0286C113.667 31.5032 112.656 32.3958 110.635 32.7062L110.442 31.5116C111.657 31.2923 112.265 30.8114 112.265 30.0691C112.265 29.4684 111.964 29.1681 111.364 29.1681H109.551V35.2269H108.21ZM122.765 35.2269H121.389L124.461 27.9887H125.904L129.042 35.2269H127.599L126.774 33.2529H124.37L124.83 32.0887H126.288L125.149 29.3705L122.765 35.2269ZM137.391 35.2168V27.9887H140.682C142.16 27.9887 142.899 28.6349 142.899 29.9273C142.899 30.8013 142.323 31.5251 141.173 32.0988L143.465 35.2269H141.775L139.573 32.0735V31.461C140.855 31.2417 141.496 30.7439 141.496 29.9678C141.496 29.4347 141.196 29.1681 140.595 29.1681H138.758V35.2168H137.391ZM152.908 27.9887V35.2269H151.567V27.9887H152.908ZM158 27.9887L154.913 31.3649L158.324 35.2269H156.467L153.668 31.8457V30.9751L156.36 27.9887H158ZM167.641 27.9887V35.2269H166.299V27.9887H167.641ZM176.628 35.2269V27.9887H177.969L181.791 33.263V27.9887H183.082V35.2269H181.74L177.919 29.8413V35.2269H176.628ZM197.839 34.8929C197.256 35.1493 196.525 35.2775 195.648 35.2775C193.093 35.2775 191.816 34.0206 191.816 31.5066C191.816 29.1276 193.115 27.9381 195.714 27.9381C196.507 27.9381 197.215 28.0562 197.839 28.2924V29.5072C197.215 29.2372 196.54 29.1023 195.815 29.1023C194.077 29.1023 193.208 29.9037 193.208 31.5066C193.208 33.2444 194.028 34.1134 195.668 34.1134C195.911 34.1134 196.188 34.0729 196.498 33.9919V31.8862H197.839V34.8929Z"/>
</mask>
<path d="M41.9433 34.9232V33.7084C42.6688 33.9784 43.4888 34.1134 44.4033 34.1134C45.5135 34.1134 46.0686 33.7422 46.0686 32.9998C46.0686 32.4599 45.7278 32.1899 45.0462 32.1899H43.9123C42.4309 32.1899 41.6903 31.515 41.6903 30.1652C41.6903 28.6805 42.7448 27.9381 44.8538 27.9381C45.6637 27.9381 46.4314 28.0562 47.1569 28.2924V29.5072C46.4314 29.2372 45.6637 29.1023 44.8538 29.1023C43.639 29.1023 43.0316 29.4566 43.0316 30.1652C43.0316 30.7051 43.3252 30.9751 43.9123 30.9751H45.0462C46.622 30.9751 47.41 31.65 47.41 32.9998C47.41 34.5183 46.4078 35.2775 44.4033 35.2775C43.4888 35.2775 42.6688 35.1594 41.9433 34.9232ZM56.7567 35.2269H55.3799L58.4524 27.9887H59.895L63.0332 35.2269H61.5906L60.7656 33.2529H58.3613L58.8219 32.0887H60.2796L59.1408 29.3705L56.7567 35.2269ZM76.1357 27.9887V29.1428H72.714V30.965H75.9636V32.1646H72.6988V35.2269H71.3828V27.9887H76.1357ZM89.6938 27.9887V29.1428H86.0696V30.965H89.5217V32.1646H86.0544V34.0627H89.7647V35.2269H84.7384V27.9887H89.6938ZM108.21 35.2269V27.9887H111.45C112.928 27.9887 113.667 28.6687 113.667 30.0286C113.667 31.5032 112.656 32.3958 110.635 32.7062L110.442 31.5116C111.657 31.2923 112.265 30.8114 112.265 30.0691C112.265 29.4684 111.964 29.1681 111.364 29.1681H109.551V35.2269H108.21ZM122.765 35.2269H121.389L124.461 27.9887H125.904L129.042 35.2269H127.599L126.774 33.2529H124.37L124.83 32.0887H126.288L125.149 29.3705L122.765 35.2269ZM137.391 35.2168V27.9887H140.682C142.16 27.9887 142.899 28.6349 142.899 29.9273C142.899 30.8013 142.323 31.5251 141.173 32.0988L143.465 35.2269H141.775L139.573 32.0735V31.461C140.855 31.2417 141.496 30.7439 141.496 29.9678C141.496 29.4347 141.196 29.1681 140.595 29.1681H138.758V35.2168H137.391ZM152.908 27.9887V35.2269H151.567V27.9887H152.908ZM158 27.9887L154.913 31.3649L158.324 35.2269H156.467L153.668 31.8457V30.9751L156.36 27.9887H158ZM167.641 27.9887V35.2269H166.299V27.9887H167.641ZM176.628 35.2269V27.9887H177.969L181.791 33.263V27.9887H183.082V35.2269H181.74L177.919 29.8413V35.2269H176.628ZM197.839 34.8929C197.256 35.1493 196.525 35.2775 195.648 35.2775C193.093 35.2775 191.816 34.0206 191.816 31.5066C191.816 29.1276 193.115 27.9381 195.714 27.9381C196.507 27.9381 197.215 28.0562 197.839 28.2924V29.5072C197.215 29.2372 196.54 29.1023 195.815 29.1023C194.077 29.1023 193.208 29.9037 193.208 31.5066C193.208 33.2444 194.028 34.1134 195.668 34.1134C195.911 34.1134 196.188 34.0729 196.498 33.9919V31.8862H197.839V34.8929Z" fill="white"/>
<path d="M41.9433 34.9232H41.7582V35.0576L41.886 35.0992L41.9433 34.9232ZM41.9433 33.7084L42.0079 33.5349L41.7582 33.442V33.7084H41.9433ZM47.1569 28.2924H47.342V28.158L47.2142 28.1164L47.1569 28.2924ZM47.1569 29.5072L47.0923 29.6807L47.342 29.7736V29.5072H47.1569ZM41.9433 34.9232H42.1284V33.7084H41.9433H41.7582V34.9232H41.9433ZM41.9433 33.7084L41.8788 33.8819C42.6283 34.1608 43.4707 34.2985 44.4033 34.2985V34.1134V33.9282C43.507 33.9282 42.7094 33.7959 42.0079 33.5349L41.9433 33.7084ZM44.4033 34.1134V34.2985C44.9732 34.2985 45.433 34.2043 45.7552 33.9888C46.0905 33.7646 46.2537 33.4247 46.2537 32.9998H46.0686H45.8835C45.8835 33.3173 45.7692 33.5341 45.5494 33.6811C45.3164 33.8369 44.9436 33.9282 44.4033 33.9282V34.1134ZM46.0686 32.9998H46.2537C46.2537 32.6883 46.1533 32.4257 45.9279 32.2473C45.7108 32.0753 45.4064 32.0048 45.0462 32.0048V32.1899V32.375C45.3675 32.375 45.5744 32.4395 45.6981 32.5375C45.8136 32.629 45.8835 32.7713 45.8835 32.9998H46.0686ZM45.0462 32.1899V32.0048H43.9123V32.1899V32.375H45.0462V32.1899ZM43.9123 32.1899V32.0048C43.1961 32.0048 42.6935 31.8413 42.3704 31.5469C42.0506 31.2555 41.8754 30.8069 41.8754 30.1652H41.6903H41.5051C41.5051 30.8733 41.7002 31.4371 42.1211 31.8206C42.5387 32.2011 43.1471 32.375 43.9123 32.375V32.1899ZM41.6903 30.1652H41.8754C41.8754 29.4726 42.1177 28.9771 42.5877 28.6462C43.0696 28.307 43.8154 28.1232 44.8538 28.1232V27.9381V27.753C43.7832 27.753 42.9472 27.9404 42.3746 28.3435C41.7901 28.755 41.5051 29.3731 41.5051 30.1652H41.6903ZM44.8538 27.9381V28.1232C45.6454 28.1232 46.3937 28.2386 47.0996 28.4684L47.1569 28.2924L47.2142 28.1164C46.4691 27.8738 45.6819 27.753 44.8538 27.753V27.9381ZM47.1569 28.2924H46.9718V29.5072H47.1569H47.342V28.2924H47.1569ZM47.1569 29.5072L47.2214 29.3337C46.4743 29.0557 45.6847 28.9172 44.8538 28.9172V29.1023V29.2874C45.6427 29.2874 46.3884 29.4188 47.0923 29.6807L47.1569 29.5072ZM44.8538 29.1023V28.9172C44.2345 28.9172 43.7397 29.0064 43.3939 29.2081C43.0328 29.4188 42.8465 29.7457 42.8465 30.1652H43.0316H43.2167C43.2167 29.8761 43.3341 29.6716 43.5804 29.5279C43.8421 29.3753 44.2583 29.2874 44.8538 29.2874V29.1023ZM43.0316 30.1652H42.8465C42.8465 30.4679 42.9295 30.7278 43.1265 30.9089C43.3205 31.0873 43.5939 31.1602 43.9123 31.1602V30.9751V30.79C43.6436 30.79 43.4766 30.7279 43.3771 30.6364C43.2805 30.5476 43.2167 30.4025 43.2167 30.1652H43.0316ZM43.9123 30.9751V31.1602H45.0462V30.9751V30.79H43.9123V30.9751ZM45.0462 30.9751V31.1602C45.812 31.1602 46.3518 31.3248 46.6986 31.6219C47.0399 31.9142 47.2249 32.3616 47.2249 32.9998H47.41H47.5951C47.5951 32.2882 47.3861 31.7232 46.9394 31.3407C46.4983 30.9628 45.8562 30.79 45.0462 30.79V30.9751ZM47.41 32.9998H47.2249C47.2249 33.7146 46.9917 34.2233 46.5465 34.5606C46.0917 34.9051 45.3874 35.0924 44.4033 35.0924V35.2775V35.4627C45.4236 35.4627 46.2227 35.2703 46.7701 34.8557C47.3272 34.4336 47.5951 33.8035 47.5951 32.9998H47.41ZM44.4033 35.2775V35.0924C43.5046 35.0924 42.7044 34.9763 42.0006 34.7472L41.9433 34.9232L41.886 35.0992C42.6333 35.3425 43.4731 35.4627 44.4033 35.4627V35.2775ZM56.7567 35.2269V35.412H56.8812L56.9282 35.2967L56.7567 35.2269ZM55.3799 35.2269L55.2095 35.1546L55.1002 35.412H55.3799V35.2269ZM58.4524 27.9887V27.8036H58.3299L58.282 27.9164L58.4524 27.9887ZM59.895 27.9887L60.0648 27.9151L60.0165 27.8036H59.895V27.9887ZM63.0332 35.2269V35.412H63.3152L63.2031 35.1533L63.0332 35.2269ZM61.5906 35.2269L61.4198 35.2983L61.4674 35.412H61.5906V35.2269ZM60.7656 33.2529L60.9364 33.1815L60.8888 33.0678H60.7656V33.2529ZM58.3613 33.2529L58.1891 33.1848L58.0889 33.438H58.3613V33.2529ZM58.8219 32.0887V31.9036H58.696L58.6497 32.0206L58.8219 32.0887ZM60.2796 32.0887V32.2738H60.5579L60.4504 32.0171L60.2796 32.0887ZM59.1408 29.3705L59.3115 29.299L59.1383 28.8856L58.9693 29.3007L59.1408 29.3705ZM56.7567 35.2269V35.0418H55.3799V35.2269V35.412H56.7567V35.2269ZM55.3799 35.2269L55.5503 35.2993L58.6228 28.061L58.4524 27.9887L58.282 27.9164L55.2095 35.1546L55.3799 35.2269ZM58.4524 27.9887V28.1738H59.895V27.9887V27.8036H58.4524V27.9887ZM59.895 27.9887L59.7251 28.0623L62.8634 35.3006L63.0332 35.2269L63.2031 35.1533L60.0648 27.9151L59.895 27.9887ZM63.0332 35.2269V35.0418H61.5906V35.2269V35.412H63.0332V35.2269ZM61.5906 35.2269L61.7614 35.1555L60.9364 33.1815L60.7656 33.2529L60.5948 33.3242L61.4198 35.2983L61.5906 35.2269ZM60.7656 33.2529V33.0678H58.3613V33.2529V33.438H60.7656V33.2529ZM58.3613 33.2529L58.5334 33.321L58.994 32.1568L58.8219 32.0887L58.6497 32.0206L58.1891 33.1848L58.3613 33.2529ZM58.8219 32.0887V32.2738H60.2796V32.0887V31.9036H58.8219V32.0887ZM60.2796 32.0887L60.4504 32.0171L59.3115 29.299L59.1408 29.3705L58.97 29.4421L60.1089 32.1602L60.2796 32.0887ZM59.1408 29.3705L58.9693 29.3007L56.5853 35.1571L56.7567 35.2269L56.9282 35.2967L59.3122 29.4403L59.1408 29.3705ZM76.1357 27.9887H76.3208V27.8036H76.1357V27.9887ZM76.1357 29.1428V29.3279H76.3208V29.1428H76.1357ZM72.714 29.1428V28.9577H72.5289V29.1428H72.714ZM72.714 30.965H72.5289V31.1501H72.714V30.965ZM75.9636 30.965H76.1487V30.7799H75.9636V30.965ZM75.9636 32.1646V32.3497H76.1487V32.1646H75.9636ZM72.6988 32.1646V31.9795H72.5137V32.1646H72.6988ZM72.6988 35.2269V35.412H72.8839V35.2269H72.6988ZM71.3828 35.2269H71.1977V35.412H71.3828V35.2269ZM71.3828 27.9887V27.8036H71.1977V27.9887H71.3828ZM76.1357 27.9887H75.9506V29.1428H76.1357H76.3208V27.9887H76.1357ZM76.1357 29.1428V28.9577H72.714V29.1428V29.3279H76.1357V29.1428ZM72.714 29.1428H72.5289V30.965H72.714H72.8991V29.1428H72.714ZM72.714 30.965V31.1501H75.9636V30.965V30.7799H72.714V30.965ZM75.9636 30.965H75.7785V32.1646H75.9636H76.1487V30.965H75.9636ZM75.9636 32.1646V31.9795H72.6988V32.1646V32.3497H75.9636V32.1646ZM72.6988 32.1646H72.5137V35.2269H72.6988H72.8839V32.1646H72.6988ZM72.6988 35.2269V35.0418H71.3828V35.2269V35.412H72.6988V35.2269ZM71.3828 35.2269H71.5679V27.9887H71.3828H71.1977V35.2269H71.3828ZM71.3828 27.9887V28.1738H76.1357V27.9887V27.8036H71.3828V27.9887ZM89.6938 27.9887H89.8789V27.8036H89.6938V27.9887ZM89.6938 29.1428V29.3279H89.8789V29.1428H89.6938ZM86.0696 29.1428V28.9577H85.8845V29.1428H86.0696ZM86.0696 30.965H85.8845V31.1501H86.0696V30.965ZM89.5217 30.965H89.7068V30.7799H89.5217V30.965ZM89.5217 32.1646V32.3497H89.7068V32.1646H89.5217ZM86.0544 32.1646V31.9795H85.8693V32.1646H86.0544ZM86.0544 34.0627H85.8693V34.2479H86.0544V34.0627ZM89.7647 34.0627H89.9498V33.8776H89.7647V34.0627ZM89.7647 35.2269V35.412H89.9498V35.2269H89.7647ZM84.7384 35.2269H84.5533V35.412H84.7384V35.2269ZM84.7384 27.9887V27.8036H84.5533V27.9887H84.7384ZM89.6938 27.9887H89.5087V29.1428H89.6938H89.8789V27.9887H89.6938ZM89.6938 29.1428V28.9577H86.0696V29.1428V29.3279H89.6938V29.1428ZM86.0696 29.1428H85.8845V30.965H86.0696H86.2547V29.1428H86.0696ZM86.0696 30.965V31.1501H89.5217V30.965V30.7799H86.0696V30.965ZM89.5217 30.965H89.3366V32.1646H89.5217H89.7068V30.965H89.5217ZM89.5217 32.1646V31.9795H86.0544V32.1646V32.3497H89.5217V32.1646ZM86.0544 32.1646H85.8693V34.0627H86.0544H86.2395V32.1646H86.0544ZM86.0544 34.0627V34.2479H89.7647V34.0627V33.8776H86.0544V34.0627ZM89.7647 34.0627H89.5795V35.2269H89.7647H89.9498V34.0627H89.7647ZM89.7647 35.2269V35.0418H84.7384V35.2269V35.412H89.7647V35.2269ZM84.7384 35.2269H84.9235V27.9887H84.7384H84.5533V35.2269H84.7384ZM84.7384 27.9887V28.1738H89.6938V27.9887V27.8036H84.7384V27.9887ZM108.21 35.2269H108.025V35.412H108.21V35.2269ZM108.21 27.9887V27.8036H108.025V27.9887H108.21ZM110.635 32.7062L110.452 32.7356L110.481 32.9171L110.663 32.8892L110.635 32.7062ZM110.442 31.5116L110.409 31.3295L110.231 31.3617L110.26 31.5411L110.442 31.5116ZM109.551 29.1681V28.983H109.366V29.1681H109.551ZM109.551 35.2269V35.412H109.737V35.2269H109.551ZM108.21 35.2269H108.395V27.9887H108.21H108.025V35.2269H108.21ZM108.21 27.9887V28.1738H111.45V27.9887V27.8036H108.21V27.9887ZM111.45 27.9887V28.1738C112.164 28.1738 112.665 28.3384 112.987 28.6349C113.306 28.9287 113.482 29.3813 113.482 30.0286H113.667H113.852C113.852 29.3159 113.657 28.7486 113.238 28.3624C112.821 27.979 112.213 27.8036 111.45 27.8036V27.9887ZM113.667 30.0286H113.482C113.482 30.7184 113.248 31.2576 112.786 31.6652C112.318 32.0788 111.599 32.3708 110.607 32.5232L110.635 32.7062L110.663 32.8892C111.692 32.7311 112.489 32.4217 113.031 31.9427C113.58 31.4578 113.852 30.8134 113.852 30.0286H113.667ZM110.635 32.7062L110.817 32.6768L110.625 31.4822L110.442 31.5116L110.26 31.5411L110.452 32.7356L110.635 32.7062ZM110.442 31.5116L110.475 31.6938C111.097 31.5816 111.586 31.399 111.924 31.1316C112.27 30.8579 112.45 30.4996 112.45 30.0691H112.265H112.079C112.079 30.3809 111.956 30.6343 111.694 30.8414C111.424 31.0549 111.003 31.2223 110.409 31.3295L110.442 31.5116ZM112.265 30.0691H112.45C112.45 29.7402 112.367 29.4595 112.17 29.2624C111.973 29.0653 111.692 28.983 111.364 28.983V29.1681V29.3532C111.635 29.3532 111.805 29.421 111.908 29.5242C112.012 29.6274 112.079 29.7973 112.079 30.0691H112.265ZM111.364 29.1681V28.983H109.551V29.1681V29.3532H111.364V29.1681ZM109.551 29.1681H109.366V35.2269H109.551H109.737V29.1681H109.551ZM109.551 35.2269V35.0418H108.21V35.2269V35.412H109.551V35.2269ZM122.765 35.2269V35.412H122.89L122.937 35.2967L122.765 35.2269ZM121.389 35.2269L121.218 35.1546L121.109 35.412H121.389V35.2269ZM124.461 27.9887V27.8036H124.338L124.291 27.9164L124.461 27.9887ZM125.904 27.9887L126.073 27.9151L126.025 27.8036H125.904V27.9887ZM129.042 35.2269V35.412H129.324L129.212 35.1533L129.042 35.2269ZM127.599 35.2269L127.428 35.2983L127.476 35.412H127.599V35.2269ZM126.774 33.2529L126.945 33.1815L126.897 33.0678H126.774V33.2529ZM124.37 33.2529L124.198 33.1848L124.098 33.438H124.37V33.2529ZM124.83 32.0887V31.9036H124.705L124.658 32.0206L124.83 32.0887ZM126.288 32.0887V32.2738H126.567L126.459 32.0171L126.288 32.0887ZM125.149 29.3705L125.32 29.299L125.147 28.8856L124.978 29.3007L125.149 29.3705ZM122.765 35.2269V35.0418H121.389V35.2269V35.412H122.765V35.2269ZM121.389 35.2269L121.559 35.2993L124.631 28.061L124.461 27.9887L124.291 27.9164L121.218 35.1546L121.389 35.2269ZM124.461 27.9887V28.1738H125.904V27.9887V27.8036H124.461V27.9887ZM125.904 27.9887L125.734 28.0623L128.872 35.3006L129.042 35.2269L129.212 35.1533L126.073 27.9151L125.904 27.9887ZM129.042 35.2269V35.0418H127.599V35.2269V35.412H129.042V35.2269ZM127.599 35.2269L127.77 35.1555L126.945 33.1815L126.774 33.2529L126.603 33.3242L127.428 35.2983L127.599 35.2269ZM126.774 33.2529V33.0678H124.37V33.2529V33.438H126.774V33.2529ZM124.37 33.2529L124.542 33.321L125.003 32.1568L124.83 32.0887L124.658 32.0206L124.198 33.1848L124.37 33.2529ZM124.83 32.0887V32.2738H126.288V32.0887V31.9036H124.83V32.0887ZM126.288 32.0887L126.459 32.0171L125.32 29.299L125.149 29.3705L124.979 29.4421L126.118 32.1602L126.288 32.0887ZM125.149 29.3705L124.978 29.3007L122.594 35.1571L122.765 35.2269L122.937 35.2967L125.321 29.4403L125.149 29.3705ZM137.391 35.2168H137.206V35.4019H137.391V35.2168ZM137.391 27.9887V27.8036H137.206V27.9887H137.391ZM141.173 32.0988L141.09 31.9331L140.893 32.0311L141.023 32.2082L141.173 32.0988ZM143.465 35.2269V35.412H143.831L143.615 35.1175L143.465 35.2269ZM141.775 35.2269L141.623 35.3329L141.678 35.412H141.775V35.2269ZM139.573 32.0735H139.388V32.1317L139.421 32.1795L139.573 32.0735ZM139.573 31.461L139.542 31.2786L139.388 31.3049V31.461H139.573ZM138.758 29.1681V28.983H138.573V29.1681H138.758ZM138.758 35.2168V35.4019H138.943V35.2168H138.758ZM137.391 35.2168H137.577V27.9887H137.391H137.206V35.2168H137.391ZM137.391 27.9887V28.1738H140.682V27.9887V27.8036H137.391V27.9887ZM140.682 27.9887V28.1738C141.398 28.1738 141.9 28.3309 142.222 28.6127C142.54 28.8904 142.713 29.3166 142.713 29.9273H142.899H143.084C143.084 29.2456 142.888 28.7026 142.466 28.334C142.049 27.9696 141.443 27.8036 140.682 27.8036V27.9887ZM142.899 29.9273H142.713C142.713 30.7003 142.211 31.3742 141.09 31.9331L141.173 32.0988L141.255 32.2645C142.435 31.6761 143.084 30.9023 143.084 29.9273H142.899ZM141.173 32.0988L141.023 32.2082L143.316 35.3364L143.465 35.2269L143.615 35.1175L141.322 31.9894L141.173 32.0988ZM143.465 35.2269V35.0418H141.775V35.2269V35.412H143.465V35.2269ZM141.775 35.2269L141.927 35.121L139.725 31.9675L139.573 32.0735L139.421 32.1795L141.623 35.3329L141.775 35.2269ZM139.573 32.0735H139.758V31.461H139.573H139.388V32.0735H139.573ZM139.573 31.461L139.604 31.6435C140.259 31.5315 140.774 31.345 141.129 31.0694C141.492 30.7874 141.682 30.416 141.682 29.9678H141.496H141.311C141.311 30.2957 141.18 30.5613 140.902 30.777C140.616 30.9992 140.169 31.1712 139.542 31.2786L139.573 31.461ZM141.496 29.9678H141.682C141.682 29.6666 141.596 29.4085 141.394 29.2296C141.197 29.0543 140.919 28.983 140.595 28.983V29.1681V29.3532C140.872 29.3532 141.045 29.4151 141.148 29.5065C141.247 29.5941 141.311 29.7359 141.311 29.9678H141.496ZM140.595 29.1681V28.983H138.758V29.1681V29.3532H140.595V29.1681ZM138.758 29.1681H138.573V35.2168H138.758H138.943V29.1681H138.758ZM138.758 35.2168V35.0317H137.391V35.2168V35.4019H138.758V35.2168ZM152.908 27.9887H153.093V27.8036H152.908V27.9887ZM152.908 35.2269V35.412H153.093V35.2269H152.908ZM151.567 35.2269H151.382V35.412H151.567V35.2269ZM151.567 27.9887V27.8036H151.382V27.9887H151.567ZM158 27.9887L158.137 28.1136L158.421 27.8036H158V27.9887ZM154.913 31.3649L154.776 31.2399L154.664 31.3627L154.774 31.4874L154.913 31.3649ZM158.324 35.2269V35.412H158.735L158.463 35.1044L158.324 35.2269ZM156.467 35.2269L156.324 35.345L156.38 35.412H156.467V35.2269ZM153.668 31.8457H153.482V31.9124L153.525 31.9638L153.668 31.8457ZM153.668 30.9751L153.53 30.8511L153.482 30.904V30.9751H153.668ZM156.36 27.9887V27.8036H156.278L156.223 27.8647L156.36 27.9887ZM152.908 27.9887H152.723V35.2269H152.908H153.093V27.9887H152.908ZM152.908 35.2269V35.0418H151.567V35.2269V35.412H152.908V35.2269ZM151.567 35.2269H151.752V27.9887H151.567H151.382V35.2269H151.567ZM151.567 27.9887V28.1738H152.908V27.9887V27.8036H151.567V27.9887ZM158 27.9887L157.864 27.8638L154.776 31.2399L154.913 31.3649L155.049 31.4898L158.137 28.1136L158 27.9887ZM154.913 31.3649L154.774 31.4874L158.186 35.3495L158.324 35.2269L158.463 35.1044L155.052 31.2423L154.913 31.3649ZM158.324 35.2269V35.0418H156.467V35.2269V35.412H158.324V35.2269ZM156.467 35.2269L156.609 35.1089L153.81 31.7277L153.668 31.8457L153.525 31.9638L156.324 35.345L156.467 35.2269ZM153.668 31.8457H153.853V30.9751H153.668H153.482V31.8457H153.668ZM153.668 30.9751L153.805 31.0991L156.498 28.1127L156.36 27.9887L156.223 27.8647L153.53 30.8511L153.668 30.9751ZM156.36 27.9887V28.1738H158V27.9887V27.8036H156.36V27.9887ZM167.641 27.9887H167.826V27.8036H167.641V27.9887ZM167.641 35.2269V35.412H167.826V35.2269H167.641ZM166.299 35.2269H166.114V35.412H166.299V35.2269ZM166.299 27.9887V27.8036H166.114V27.9887H166.299ZM167.641 27.9887H167.456V35.2269H167.641H167.826V27.9887H167.641ZM167.641 35.2269V35.0418H166.299V35.2269V35.412H167.641V35.2269ZM166.299 35.2269H166.485V27.9887H166.299H166.114V35.2269H166.299ZM166.299 27.9887V28.1738H167.641V27.9887V27.8036H166.299V27.9887ZM176.628 35.2269H176.443V35.412H176.628V35.2269ZM176.628 27.9887V27.8036H176.443V27.9887H176.628ZM177.969 27.9887L178.119 27.8801L178.064 27.8036H177.969V27.9887ZM181.791 33.263L181.641 33.3716L181.976 33.834V33.263H181.791ZM181.791 27.9887V27.8036H181.606V27.9887H181.791ZM183.082 27.9887H183.267V27.8036H183.082V27.9887ZM183.082 35.2269V35.412H183.267V35.2269H183.082ZM181.74 35.2269L181.589 35.3341L181.645 35.412H181.74V35.2269ZM177.919 29.8413L178.07 29.7342L177.734 29.2605V29.8413H177.919ZM177.919 35.2269V35.412H178.104V35.2269H177.919ZM176.628 35.2269H176.813V27.9887H176.628H176.443V35.2269H176.628ZM176.628 27.9887V28.1738H177.969V27.9887V27.8036H176.628V27.9887ZM177.969 27.9887L177.82 28.0973L181.641 33.3716L181.791 33.263L181.941 33.1544L178.119 27.8801L177.969 27.9887ZM181.791 33.263H181.976V27.9887H181.791H181.606V33.263H181.791ZM181.791 27.9887V28.1738H183.082V27.9887V27.8036H181.791V27.9887ZM183.082 27.9887H182.897V35.2269H183.082H183.267V27.9887H183.082ZM183.082 35.2269V35.0418H181.74V35.2269V35.412H183.082V35.2269ZM181.74 35.2269L181.891 35.1198L178.07 29.7342L177.919 29.8413L177.768 29.9484L181.589 35.3341L181.74 35.2269ZM177.919 29.8413H177.734V35.2269H177.919H178.104V29.8413H177.919ZM177.919 35.2269V35.0418H176.628V35.2269V35.412H177.919V35.2269ZM197.839 34.8929L197.914 35.0623L198.025 35.0137V34.8929H197.839ZM197.839 28.2924H198.025V28.1645L197.905 28.1193L197.839 28.2924ZM197.839 29.5072L197.766 29.6771L198.025 29.7889V29.5072H197.839ZM196.498 33.9919L196.545 34.171L196.683 34.1349V33.9919H196.498ZM196.498 31.8862V31.7011H196.313V31.8862H196.498ZM197.839 31.8862H198.025V31.7011H197.839V31.8862ZM197.839 34.8929L197.765 34.7234C197.212 34.9664 196.508 35.0924 195.648 35.0924V35.2775V35.4627C196.542 35.4627 197.3 35.3322 197.914 35.0623L197.839 34.8929ZM195.648 35.2775V35.0924C194.398 35.0924 193.495 34.7851 192.904 34.2029C192.313 33.6212 192.001 32.7343 192.001 31.5066H191.816H191.631C191.631 32.7929 191.958 33.7914 192.644 34.4667C193.33 35.1415 194.343 35.4627 195.648 35.4627V35.2775ZM191.816 31.5066H192.001C192.001 30.35 192.316 29.5154 192.915 28.9667C193.518 28.4153 194.439 28.1232 195.714 28.1232V27.9381V27.753C194.39 27.753 193.362 28.0556 192.665 28.6937C191.965 29.3345 191.631 30.2841 191.631 31.5066H191.816ZM195.714 27.9381V28.1232C196.488 28.1232 197.174 28.2386 197.774 28.4655L197.839 28.2924L197.905 28.1193C197.256 27.8738 196.525 27.753 195.714 27.753V27.9381ZM197.839 28.2924H197.654V29.5072H197.839H198.025V28.2924H197.839ZM197.839 29.5072L197.913 29.3373C197.264 29.0567 196.564 28.9172 195.815 28.9172V29.1023V29.2874C196.517 29.2874 197.166 29.4178 197.766 29.6771L197.839 29.5072ZM195.815 29.1023V28.9172C194.921 28.9172 194.216 29.123 193.734 29.5673C193.25 30.0142 193.023 30.6726 193.023 31.5066H193.208H193.393C193.393 30.7377 193.601 30.1939 193.985 29.8394C194.372 29.4823 194.971 29.2874 195.815 29.2874V29.1023ZM193.208 31.5066H193.023C193.023 32.4015 193.234 33.107 193.688 33.5887C194.145 34.0724 194.817 34.2985 195.668 34.2985V34.1134V33.9282C194.879 33.9282 194.321 33.7198 193.958 33.3346C193.592 32.9474 193.393 32.3496 193.393 31.5066H193.208ZM195.668 34.1134V34.2985C195.931 34.2985 196.224 34.2548 196.545 34.171L196.498 33.9919L196.451 33.8128C196.152 33.891 195.891 33.9282 195.668 33.9282V34.1134ZM196.498 33.9919H196.683V31.8862H196.498H196.313V33.9919H196.498ZM196.498 31.8862V32.0713H197.839V31.8862V31.7011H196.498V31.8862ZM197.839 31.8862H197.654V34.8929H197.839H198.025V31.8862H197.839Z" fill="white" mask="url(#path-7-outside-2_580_831)"/>
</svg>
